<?xml version="1.0" encoding="UTF-8"?>
<svg version="1.1" xmlns="http://www.w3.org/2000/svg" width="500" height="500">
<path d="M0 0 C3.24268638 2.34577313 4.71214956 3.84859824 5.6875 7.75 C3.94219426 16.0005362 -3.43572579 23.31944759 -8.5 29.875 C-13.78481972 36.75867578 -19.0043644 43.68085101 -24.125 50.6875 C-29.20636389 57.63193474 -34.42951629 64.44732007 -39.73950195 71.21801758 C-45.80262041 78.97483005 -51.61086603 86.9131343 -57.42529297 94.85693359 C-60.91090478 99.60060808 -64.45459329 104.3009292 -68 109 C-65.36902413 110.75398391 -62.86850716 111.94760608 -59.96362305 113.15454102 C-38.94386754 121.92564757 -18.38528667 133.96235557 -3 151 C-2.154375 151.845625 -1.30875 152.69125 -0.4375 153.5625 C0.366875 154.366875 1.17125 155.17125 2 156 C2.80244141 156.71542969 2.80244141 156.71542969 3.62109375 157.4453125 C15.66539349 168.6132079 24.55046509 183.4890823 32 198 C32.31130859 198.598125 32.62261719 199.19625 32.94335938 199.8125 C41.86664142 217.1643832 47.13247473 235.75097401 50 255 C50.1045752 255.67554932 50.20915039 256.35109863 50.31689453 257.04711914 C51.23998225 263.93608861 51.15110604 270.86407907 51.13037109 277.80151367 C51.12501987 279.9295975 51.13033918 282.05746951 51.13671875 284.18554688 C51.13992148 291.51051914 50.96017443 298.73088899 50 306 C64.7041375 268.16135284 65.30723443 227.57861679 53 189 C52.79036621 188.33967773 52.58073242 187.67935547 52.36474609 186.99902344 C46.601483 169.33211534 37.56669431 152.53160291 26 138 C25.56719727 137.4544043 25.13439453 136.90880859 24.68847656 136.34667969 C14.00556731 123.02620775 1.98149798 110.15538411 -12.79296875 101.33203125 C-15.418366 99.74749946 -16.18032261 98.95083862 -17 96 C-16.78279975 89.80979284 -16.78279975 89.80979284 -14.1875 87.125 C-12.03877017 86.01993894 -10.37684117 85.39168918 -8 85 C-0.57351804 87.86636146 5.03524914 92.82999154 11 98 C12.23943359 99.07121094 12.23943359 99.07121094 13.50390625 100.1640625 C16.04123821 102.40408269 18.52776306 104.68834642 21 107 C21.93585938 107.87011719 22.87171875 108.74023438 23.8359375 109.63671875 C58.14481289 142.27586903 77.13500211 189.41731932 78.91064453 236.34375 C79.67537934 268.04110465 74.04636364 301.35505828 58.1015625 329.15625 C55.4089134 336.10748598 57.46667664 344.23992351 58.56054688 351.39794922 C58.72635757 352.51446869 58.89216827 353.63098816 59.06300354 354.78134155 C59.42223935 357.19557863 59.78410744 359.6094252 60.14833069 362.02291489 C60.72528899 365.84803977 61.29472713 369.67421751 61.86218262 373.50076294 C63.27286825 383.00392379 64.69476598 392.50539765 66.1194458 402.00646973 C67.32389661 410.03988254 68.52244956 418.07412174 69.71290588 426.10962296 C70.27227443 429.86935914 70.84007266 433.62776089 71.40808105 437.38619995 C71.75231731 439.70515444 72.09613023 442.02417183 72.43945312 444.34326172 C72.67789696 445.89750854 72.67789696 445.89750854 72.92115784 447.4831543 C75.29690323 463.73041934 75.29690323 463.73041934 72.5 468.625 C69.01753171 470.54035756 65.85398652 470.46284123 62 470 C58.96042383 469.0786579 56.15895086 467.77446132 53.296875 466.40625 C52.47303314 466.02763824 51.64919128 465.64902649 50.80038452 465.25894165 C48.11044922 464.01944656 45.43054906 462.7596469 42.75 461.5 C40.87954271 460.63482601 39.00827525 459.77140158 37.13623047 458.90966797 C34.26456251 457.5873822 31.3935027 456.26391109 28.5249939 454.93478394 C19.86027409 450.92002176 11.15085723 447.0109258 2.42004395 443.14233398 C-0.51569733 441.84099534 -3.4489022 440.53399026 -6.38194275 439.22657776 C-8.36666738 438.34820316 -10.35833484 437.48727338 -12.35083008 436.62670898 C-14.70406112 435.57769725 -17.02887513 434.46117378 -19.3112793 433.26586914 C-24.71304646 430.44092262 -24.71304646 430.44092262 -30.58984375 430.61132812 C-33.2692195 431.94058229 -35.61758378 433.46568108 -38.0625 435.1875 C-39.89199132 436.34799333 -41.72674256 437.50023201 -43.56640625 438.64453125 C-44.47664551 439.22025879 -45.38688477 439.79598633 -46.32470703 440.38916016 C-81.48971392 461.56261475 -130.05485506 464.96772016 -169.23828125 455.828125 C-177.95755266 453.6595226 -186.53926956 451.02289571 -195 448 C-195.4640625 448.62261719 -195.928125 449.24523437 -196.40625 449.88671875 C-202.18701059 457.61956454 -208.02899476 465.30465888 -213.89550781 472.97265625 C-217.15279779 477.23607671 -220.38987402 481.51006641 -223.55859375 485.83984375 C-224.10088623 486.57750977 -224.64317871 487.31517578 -225.2019043 488.07519531 C-226.20640288 489.44578698 -227.20438059 490.82119083 -228.19458008 492.20214844 C-232.31926868 497.81690779 -232.31926868 497.81690779 -236 499 C-239.59974487 499.44996811 -241.31889507 499.44809535 -244.375 497.4375 C-246.62415181 494.06377229 -246.38501252 492.00915211 -246 488 C-244.70913991 485.6294574 -243.51520623 483.78017692 -241.875 481.6875 C-241.43341553 481.09702881 -240.99183105 480.50655762 -240.53686523 479.89819336 C-239.04428979 477.91619856 -237.52530266 475.95690405 -236 474 C-235.44876465 473.28811523 -234.8975293 472.57623047 -234.32958984 471.84277344 C-231.985943 468.81747117 -229.63761464 465.79601486 -227.27636719 462.78442383 C-221.68283221 455.64369192 -216.31271127 448.35105763 -211 441 C-211.47719482 440.71914551 -211.95438965 440.43829102 -212.44604492 440.14892578 C-222.82521434 434.00836353 -232.68136595 427.68403534 -242 420 C-242.57202148 419.53480957 -243.14404297 419.06961914 -243.73339844 418.59033203 C-260.57771225 404.83827768 -274.13807705 388.86544512 -285 370 C-285.65742188 368.87335938 -286.31484375 367.74671875 -286.9921875 366.5859375 C-296.4626594 349.9061178 -302.39643372 331.78989941 -306 313 C-306.18618896 312.06824951 -306.37237793 311.13649902 -306.56420898 310.17651367 C-308.18902991 301.08864246 -308.33900972 292.12033184 -308.31567383 282.91821289 C-308.31252584 280.33371248 -308.33601777 277.75037461 -308.36132812 275.16601562 C-308.42820014 258.36101707 -305.50293485 242.86900867 -301.125 226.6875 C-300.40634218 223.98798378 -299.69310635 221.2870484 -298.98046875 218.5859375 C-298.71971306 217.60180626 -298.71971306 217.60180626 -298.45368958 216.59779358 C-297.20870654 211.87294219 -296.08326048 207.13021247 -295.01196289 202.36352539 C-288.85632676 175.02810598 -277.45842384 150.90006904 -260.8125 128.4375 C-260.33780273 127.79482178 -259.86310547 127.15214355 -259.37402344 126.48999023 C-256.39250152 122.55760735 -253.18429409 119.04937901 -249.62597656 115.62988281 C-247.94031124 113.94016784 -246.44054909 112.16518474 -244.9375 110.3125 C-216.06403613 76.99200709 -168.3820334 57.95618766 -125.375 54.625 C-100.83654763 53.0023071 -77.82232518 56.39307281 -54 62 C-53.74734375 61.27039062 -53.4946875 60.54078125 -53.234375 59.7890625 C-51.90794385 56.79199971 -50.39275325 54.84802724 -48.25 52.375 C-44.05441868 47.37386707 -40.15712798 42.21240209 -36.3125 36.9375 C-30.93241615 29.56890072 -25.42607616 22.31632255 -19.79418945 15.13842773 C-19.25366943 14.44950439 -18.71314941 13.76058105 -18.15625 13.05078125 C-17.63417969 12.38643066 -17.11210937 11.72208008 -16.57421875 11.03759766 C-14.42088896 8.25042482 -12.34514972 5.40788058 -10.27929688 2.55541992 C-7.4678306 -0.86287238 -4.1519919 -0.42223646 0 0 Z M-239.9375 128.0625 C-246.60837526 135.52778618 -252.26502204 143.80891421 -258 152 C-257.67 152.66 -257.34 153.32 -257 154 C-256.27039063 153.28457031 -255.54078125 152.56914062 -254.7890625 151.83203125 C-241.42345967 138.97704901 -226.49892716 128.44964214 -210 120 C-209.38592285 119.68337402 -208.7718457 119.36674805 -208.13916016 119.04052734 C-198.1234743 113.94622763 -187.75644904 110.21212788 -177 107 C-175.98486328 106.69618408 -175.98486328 106.69618408 -174.94921875 106.38623047 C-146.69905245 98.14659863 -115.59820809 99.03670472 -87 105 C-86.61255615 104.50185791 -86.2251123 104.00371582 -85.82592773 103.49047852 C-81.28601074 97.65344238 -81.28601074 97.65344238 -76.74609375 91.81640625 C-76.13362793 91.02637207 -75.52116211 90.23633789 -74.89013672 89.42236328 C-73.59446185 87.76185101 -72.28821973 86.10954591 -70.97314453 84.46435547 C-70.3336084 83.6601416 -69.69407227 82.85592773 -69.03515625 82.02734375 C-68.45258057 81.301521 -67.87000488 80.57569824 -67.26977539 79.82788086 C-65.80982627 78.09717921 -65.80982627 78.09717921 -66 76 C-80.52521317 71.94267789 -94.69034303 70.60856648 -109.6875 70.6875 C-110.80093277 70.69073273 -110.80093277 70.69073273 -111.93685913 70.69403076 C-161.66673142 70.92486394 -205.90938293 92.10410077 -239.9375 128.0625 Z M40 343 C37.91716966 347.10495038 35.88187169 351.21260948 33.9921875 355.41015625 C29.20254935 365.99414901 23.8603805 375.62553469 17 385 C16.58556641 385.57524414 16.17113281 386.15048828 15.74414062 386.74316406 C-1.81899889 410.90949945 -1.81899889 410.90949945 -12 416 C-12 416.99 -12 417.98 -12 419 C-11.07179443 419.41137207 -10.14358887 419.82274414 -9.18725586 420.24658203 C12.24631632 429.74819669 33.64713811 439.31832454 55 449 C55.92153029 445.98465761 56.01415347 443.75613736 55.55079651 440.64666748 C55.42595886 439.78292511 55.30112122 438.91918274 55.17250061 438.02926636 C55.02864426 437.08987213 54.8847879 436.15047791 54.73657227 435.18261719 C54.59041473 434.18716888 54.4442572 433.19172058 54.29367065 432.16610718 C53.80861082 428.87522584 53.31255705 425.58610091 52.81640625 422.296875 C52.47799597 420.01582711 52.14027189 417.73467732 51.8032074 415.45343018 C50.91407751 409.44858891 50.01561908 403.44517916 49.11523438 397.4420166 C48.19815593 391.31634577 47.2898743 385.18937164 46.38085938 379.0625 C44.59586413 367.04037213 42.80101469 355.0197377 41 343 C40.67 343 40.34 343 40 343 Z " fill="#FDBF1E" transform="translate(365,1)"/>
<path d="M0 0 C9.19979188 5.25236345 17.13254958 12.59126875 24.75488281 19.87695312 C26.14046832 21.19807107 27.54254285 22.50183021 28.9453125 23.8046875 C63.42366105 56.78397742 82.03638367 104.94519126 83.17578125 152.171875 C83.51303734 183.04559895 77.828092 215.34761364 62.3046875 242.4140625 C59.6120384 249.36529848 61.66980164 257.49773601 62.76367188 264.65576172 C62.92948257 265.77228119 63.09529327 266.88880066 63.26612854 268.03915405 C63.62536435 270.45339113 63.98723244 272.8672377 64.35145569 275.28072739 C64.92841399 279.10585227 65.49785213 282.93203001 66.06530762 286.75857544 C67.47599325 296.26173629 68.89789098 305.76321015 70.3225708 315.26428223 C71.52702161 323.29769504 72.72557456 331.33193424 73.91603088 339.36743546 C74.47539943 343.12717164 75.04319766 346.88557339 75.61120605 350.64401245 C75.95544231 352.96296694 76.29925523 355.28198433 76.64257812 357.60107422 C76.88102196 359.15532104 76.88102196 359.15532104 77.12428284 360.7409668 C79.50002823 376.98823184 79.50002823 376.98823184 76.703125 381.8828125 C73.22065671 383.79817006 70.05711152 383.72065373 66.203125 383.2578125 C63.16354883 382.3364704 60.36207586 381.03227382 57.5 379.6640625 C56.67615814 379.28545074 55.85231628 378.90683899 55.00350952 378.51675415 C52.31357422 377.27725906 49.63367406 376.0174594 46.953125 374.7578125 C45.08266771 373.89263851 43.21140025 373.02921408 41.33935547 372.16748047 C38.46768751 370.8451947 35.5966277 369.52172359 32.7281189 368.19259644 C24.06339909 364.17783426 15.35398223 360.2687383 6.62316895 356.40014648 C3.68742767 355.09880784 0.7542228 353.79180276 -2.17881775 352.48439026 C-4.16354238 351.60601566 -6.15520984 350.74508588 -8.14770508 349.88452148 C-10.50093612 348.83550975 -12.82575013 347.71898628 -15.1081543 346.52368164 C-20.50992146 343.69873512 -20.50992146 343.69873512 -26.38671875 343.86914062 C-29.0660945 345.19839479 -31.41445878 346.72349358 -33.859375 348.4453125 C-35.68886632 349.60580583 -37.52361756 350.75804451 -39.36328125 351.90234375 C-40.27352051 352.47807129 -41.18375977 353.05379883 -42.12158203 353.64697266 C-77.28658892 374.82042725 -125.85173006 378.22553266 -165.03515625 369.0859375 C-173.75442766 366.9173351 -182.33614456 364.28070821 -190.796875 361.2578125 C-191.2609375 361.88042969 -191.725 362.50304687 -192.203125 363.14453125 C-197.98388559 370.87737704 -203.82586976 378.56247138 -209.69238281 386.23046875 C-212.94967279 390.49388921 -216.18674902 394.76787891 -219.35546875 399.09765625 C-220.16890747 400.20415527 -220.16890747 400.20415527 -220.9987793 401.33300781 C-222.00327788 402.70359948 -223.00125559 404.07900333 -223.99145508 405.45996094 C-228.11614368 411.07472029 -228.11614368 411.07472029 -231.796875 412.2578125 C-235.39661987 412.70778061 -237.11577007 412.70590785 -240.171875 410.6953125 C-242.42102681 407.32158479 -242.18188752 405.26696461 -241.796875 401.2578125 C-240.50598691 398.88721847 -239.31215413 397.03799623 -237.671875 394.9453125 C-237.22956543 394.35411621 -236.78725586 393.76291992 -236.33154297 393.15380859 C-234.8393248 391.17287492 -233.32094659 389.21432771 -231.796875 387.2578125 C-231.25095703 386.55124512 -230.70503906 385.84467773 -230.14257812 385.11669922 C-227.20751864 381.31843638 -224.25700178 377.5326557 -221.296875 373.75390625 C-218.12030098 369.68868911 -215.00640823 365.58063812 -211.921875 361.4453125 C-207.14481164 355.04308779 -202.32571762 348.67408654 -197.484375 342.3203125 C-196.82646973 341.45623779 -196.16856445 340.59216309 -195.49072266 339.7019043 C-192.35673616 335.59176457 -189.20290176 331.50118576 -186.00390625 327.44140625 C-183.69183613 324.48264647 -181.69245689 321.50250222 -179.796875 318.2578125 C-178.55379961 316.6936779 -177.27991716 315.15377404 -175.984375 313.6328125 C-171.81058368 308.59991016 -167.90534597 303.41056433 -164.046875 298.1328125 C-158.97104002 291.19129483 -153.8209216 284.31759954 -148.58032227 277.49975586 C-142.92173081 270.13373304 -137.35552782 262.69939637 -131.796875 255.2578125 C-132.20679688 254.53335937 -132.61671875 253.80890625 -133.0390625 253.0625 C-133.57789063 252.09570312 -134.11671875 251.12890625 -134.671875 250.1328125 C-135.20554687 249.18148437 -135.73921875 248.23015625 -136.2890625 247.25 C-140.88005685 238.13937391 -141.15020226 228.0244488 -139.16796875 218.11328125 C-136.15850131 209.67497059 -130.17203189 202.92618088 -124.6171875 196.0390625 C-120.84488578 191.35964399 -117.27332418 186.55249916 -113.734375 181.6953125 C-108.76115239 174.89656429 -103.70887789 168.16771436 -98.57250977 161.49145508 C-94.21161718 155.81927796 -89.91848816 150.09853049 -85.66552734 144.3449707 C-85.20098145 143.72066162 -84.73643555 143.09635254 -84.2578125 142.453125 C-83.85353027 141.90672363 -83.44924805 141.36032227 -83.03271484 140.79736328 C-79.4690549 136.3579244 -79.4690549 136.3579244 -75.859375 135.8203125 C-72.796875 136.2578125 -72.796875 136.2578125 -70.359375 137.8203125 C-68.796875 140.2578125 -68.796875 140.2578125 -68.9453125 143.55859375 C-69.89999109 147.70575259 -71.16647986 149.61896965 -73.859375 152.8828125 C-74.76440807 154.00539343 -75.66794238 155.12918363 -76.5703125 156.25390625 C-77.0765918 156.87765137 -77.58287109 157.50139648 -78.10449219 158.14404297 C-81.47374481 162.35220644 -84.71928252 166.6562113 -87.984375 170.9453125 C-88.64896729 171.81172363 -89.31355957 172.67813477 -89.99829102 173.57080078 C-94.42258098 179.36110056 -98.66426313 185.25601073 -102.796875 191.2578125 C-101.50257568 191.45914795 -101.50257568 191.45914795 -100.18212891 191.66455078 C-94.85460258 192.4932771 -89.88927574 193.43800563 -84.796875 195.2578125 C-84.26284058 194.52800171 -84.26284058 194.52800171 -83.71801758 193.78344727 C-77.09973819 184.74774422 -70.45342113 175.73440795 -63.671875 166.8203125 C-63.14053955 166.117854 -62.6092041 165.41539551 -62.06176758 164.69165039 C-55.00602215 155.45933702 -55.00602215 155.45933702 -50.796875 154.7578125 C-47.796875 155.2578125 -47.796875 155.2578125 -45.421875 156.9453125 C-43.44786785 159.75447653 -43.42105751 160.88513141 -43.796875 164.2578125 C-45.07519531 166.49926758 -45.07519531 166.49926758 -46.875 168.77734375 C-47.5362085 169.62756104 -48.19741699 170.47777832 -48.87866211 171.35375977 C-49.59417236 172.25022217 -50.30968262 173.14668457 -51.046875 174.0703125 C-52.51208948 175.95023194 -53.97692925 177.83044349 -55.44140625 179.7109375 C-56.540896 181.10989258 -56.540896 181.10989258 -57.66259766 182.53710938 C-60.72256884 186.43785507 -63.73886602 190.36995008 -66.734375 194.3203125 C-67.23549805 194.96782471 -67.73662109 195.61533691 -68.25292969 196.2824707 C-70.48495743 199.22293492 -72.24414018 201.57904499 -72.796875 205.2578125 C-71.67857754 207.74625218 -71.67857754 207.74625218 -69.984375 210.1953125 C-67.84715222 213.47983302 -66.14808206 216.57330154 -64.796875 220.2578125 C-63.62855469 218.70005208 -62.46024764 217.14228172 -61.29199219 215.58447266 C-60.23686112 214.17774149 -59.18151609 212.7711708 -58.12597656 211.36474609 C-55.05946024 207.27812207 -51.99734394 203.18829199 -48.94140625 199.09375 C-45.7833323 194.86333907 -42.60942518 190.64516637 -39.42822266 186.43212891 C-38.02823135 184.56617223 -36.64857977 182.68787135 -35.27734375 180.80078125 C-34.60316406 179.89972656 -33.92898438 178.99867188 -33.234375 178.0703125 C-32.42806641 176.96623047 -32.42806641 176.96623047 -31.60546875 175.83984375 C-29.08558509 173.63562586 -27.09913336 173.40554511 -23.796875 173.2578125 C-20.859375 175.3203125 -20.859375 175.3203125 -18.796875 178.2578125 C-19.06413649 182.74039622 -20.21869572 185.38270518 -22.97265625 188.875 C-23.95818481 190.1439209 -23.95818481 190.1439209 -24.96362305 191.43847656 C-25.67172119 192.32760742 -26.37981934 193.21673828 -27.109375 194.1328125 C-28.58129087 196.02039545 -30.05264041 197.90842016 -31.5234375 199.796875 C-32.25208008 200.72532227 -32.98072266 201.65376953 -33.73144531 202.61035156 C-36.5351883 206.20418004 -39.26492108 209.85005662 -41.984375 213.5078125 C-46.58630307 219.66811898 -51.24319045 225.78459661 -55.92895508 231.88134766 C-58.66377925 235.4453669 -61.37387149 239.02415589 -64.0390625 242.640625 C-64.56564453 243.35283203 -65.09222656 244.06503906 -65.63476562 244.79882812 C-66.62027749 246.13496682 -67.60117998 247.47452492 -68.57617188 248.81835938 C-75.42197225 258.08606916 -82.31598283 264.53926791 -93.796875 267.2578125 C-96.80317408 267.52583985 -99.78036881 267.53818001 -102.796875 267.5078125 C-103.56515625 267.51554687 -104.3334375 267.52328125 -105.125 267.53125 C-110.05093129 267.51449513 -114.12482806 266.82344525 -118.796875 265.2578125 C-119.15289795 265.74435303 -119.5089209 266.23089355 -119.87573242 266.73217773 C-126.83326438 276.23105032 -133.84220839 285.68268579 -141.015625 295.01977539 C-144.86789467 300.03565293 -148.68830357 305.07426236 -152.484375 310.1328125 C-152.98984863 310.80530029 -153.49532227 311.47778809 -154.01611328 312.1706543 C-156.00868607 314.83004916 -157.95310376 317.49215565 -159.796875 320.2578125 C-142.15302614 326.62449885 -124.31428862 328.63576342 -105.671875 328.6328125 C-104.55881989 328.63553162 -104.55881989 328.63553162 -103.42327881 328.63830566 C-94.06108271 328.6357142 -85.02025157 327.99277226 -75.796875 326.2578125 C-73.93095703 325.92330078 -73.93095703 325.92330078 -72.02734375 325.58203125 C-65.03173737 324.11825225 -58.29088052 322.29028452 -51.56518555 319.88354492 C-40.5772887 316.16103309 -33.05493113 319.40110426 -22.859375 324.2578125 C-20.43634032 325.38883613 -18.00922938 326.5107176 -15.58203125 327.6328125 C-14.51863525 328.13554687 -13.45523926 328.63828125 -12.35961914 329.15625 C-9.95554415 330.38944631 -9.95554415 330.38944631 -7.796875 330.2578125 C-7.796875 330.9178125 -7.796875 331.5778125 -7.796875 332.2578125 C-7.13075195 332.3520752 -6.46462891 332.44633789 -5.77832031 332.54345703 C-1.98261376 333.45290981 1.39255749 335.03198345 4.90625 336.6875 C6.02750023 337.20741768 6.02750023 337.20741768 7.17140198 337.73783875 C8.77210666 338.48053024 10.37173211 339.22555142 11.97036743 339.97268677 C16.13519965 341.91880067 20.30797292 343.84772889 24.48046875 345.77734375 C25.30943161 346.16113693 26.13839447 346.54493011 26.99247742 346.94035339 C36.05252867 351.12722022 45.18020174 355.15071065 54.33067322 359.13581848 C55.70103934 359.73264797 55.70103934 359.73264797 57.09908962 360.34153461 C57.7934213 360.64390632 58.48775297 360.94627802 59.203125 361.2578125 C57.42227364 347.27433951 55.5245183 333.31491303 53.44782257 319.37234497 C52.71521011 314.44450275 51.99350935 309.51505422 51.26953125 304.5859375 C50.35737358 298.3813614 49.44204905 292.17729116 48.51708984 285.97460938 C47.75943197 280.89188947 47.01141784 275.80783158 46.26979828 270.7227478 C45.98787424 268.80215261 45.70240998 266.88207345 45.41324615 264.96255493 C45.01146296 262.29269614 44.62202965 259.62130097 44.23535156 256.94921875 C44.05468895 255.7788205 44.05468895 255.7788205 43.87037659 254.58477783 C42.7762321 246.84196118 43.96665609 241.10025321 47.765625 234.2578125 C68.57168508 194.52335865 71.14594502 146.8721002 57.88134766 104.38378906 C57.54562744 103.33143066 57.54562744 103.33143066 57.203125 102.2578125 C56.99349121 101.59749023 56.78385742 100.93716797 56.56787109 100.25683594 C50.804608 82.58992784 41.76981931 65.78941541 30.203125 51.2578125 C29.5539209 50.43941895 29.5539209 50.43941895 28.89160156 49.60449219 C18.20869231 36.28402025 6.18462298 23.41319661 -8.58984375 14.58984375 C-11.215241 13.00531196 -11.97719761 12.20865112 -12.796875 9.2578125 C-12.57869318 3.03963068 -12.57869318 3.03963068 -9.921875 0.3828125 C-5.96432362 -1.71236176 -4.07294774 -1.89956806 0 0 Z " fill="#080705" transform="translate(360.796875,87.7421875)"/>
<path d="M0 0 C3.24268638 2.34577313 4.71214956 3.84859824 5.6875 7.75 C3.94219426 16.0005362 -3.43572579 23.31944759 -8.5 29.875 C-13.78481972 36.75867578 -19.0043644 43.68085101 -24.125 50.6875 C-29.20696419 57.63275514 -34.43018186 64.4494076 -39.74169922 71.22021484 C-44.01037501 76.68014899 -48.1544549 82.22174706 -52.25 87.8125 C-58.78851365 96.73753529 -65.49748778 105.5127717 -72.3046875 114.234375 C-79.52665843 123.49210947 -86.65986843 132.80569148 -93.67431641 142.22167969 C-95.61040202 144.81881553 -97.55526 147.40934097 -99.5 150 C-100.19996094 150.93328125 -100.89992188 151.8665625 -101.62109375 152.828125 C-106.4140625 159.21875 -111.20703125 165.609375 -116 172 C-115.01099182 173.98265234 -114.01944538 175.9624765 -113 177.9296875 C-112.67 178.57164062 -112.34 179.21359375 -112 179.875 C-111.67 180.51179687 -111.34 181.14859375 -111 181.8046875 C-106.72340853 191.19314222 -106.09287974 203.06817199 -109.625 212.875 C-113.63635178 221.18341237 -119.65409455 228.47284745 -125.26367188 235.74804688 C-126.81904146 237.76530348 -128.35848077 239.79321209 -129.890625 241.828125 C-132.2228751 244.91553 -134.59812796 247.96628414 -137 251 C-137.62261719 251.79019531 -138.24523437 252.58039063 -138.88671875 253.39453125 C-142.71367545 258.02987881 -146.61052971 261.31035887 -152 264 C-152.63035156 264.3196875 -153.26070312 264.639375 -153.91015625 264.96875 C-162.6898039 268.62270741 -174.84439945 268.63985521 -183.6875 265.25 C-185.14598135 264.54166505 -186.58750083 263.79608564 -188 263 C-189.03125 262.4225 -190.0625 261.845 -191.125 261.25 C-197.7656067 256.05300345 -202.82320654 250.87907685 -206 243 C-206.35191406 242.29101562 -206.70382813 241.58203125 -207.06640625 240.8515625 C-210.07293348 231.66844586 -209.41524282 219.55592474 -205.375 210.875 C-200.64152516 202.72343785 -194.61895686 195.42837171 -188.6953125 188.12158203 C-186.70520837 185.63108593 -184.80594162 183.08250972 -182.91088867 180.51953125 C-175.80023944 170.96109317 -168.45229197 163.81743066 -157 160 C-153.94160276 159.77307066 -150.87846679 159.81483865 -147.8125 159.8125 C-146.98685547 159.80025391 -146.16121094 159.78800781 -145.31054688 159.77539062 C-139.86816569 159.76252448 -135.22650526 160.4748491 -130 162 C-129.6596875 161.53440674 -129.319375 161.06881348 -128.96875 160.58911133 C-122.06707761 151.15781998 -115.10342434 141.78050358 -108 132.5 C-101.14520436 123.53964979 -94.41981469 114.49184966 -87.75292969 105.39111328 C-84.67544464 101.19321793 -81.58736063 97.00313441 -78.5 92.8125 C-77.93651855 92.04663574 -77.37303711 91.28077148 -76.79248047 90.49169922 C-73.22106809 85.64135671 -69.62223083 80.81250894 -66 76 C-80.66770141 73.4324694 -94.8058099 71.60917421 -109.6875 71.6875 C-110.80093277 71.69073273 -110.80093277 71.69073273 -111.93685913 71.69403076 C-160.72073047 71.92047285 -202.98945776 92.15222323 -237.3046875 126.29296875 C-242.22087432 131.52429575 -246.47172781 137.20249253 -250.6875 143 C-251.22238037 143.73549072 -251.75726074 144.47098145 -252.30834961 145.22875977 C-258.62886781 154.07357464 -263.78733094 163.12787695 -268.0625 173.125 C-268.4951416 174.1363501 -268.9277832 175.1477002 -269.37353516 176.18969727 C-272.80242374 184.32732553 -275.95787166 192.39539716 -278 201 C-278.19319824 201.8132373 -278.38639648 202.62647461 -278.58544922 203.46435547 C-288.61076758 247.99313688 -280.79334872 296.19307696 -256.6640625 334.9375 C-247.03924671 349.85991791 -235.71474038 363.08712191 -222.41015625 374.84375 C-216.09737422 380.49149016 -216.09737422 380.49149016 -215.4375 383.9375 C-216.19942251 388.08574477 -217.63655511 389.51397551 -221 392 C-224.54252141 392.44402176 -226.40288265 392.35267244 -229.5 390.5234375 C-268.72080865 356.81805507 -294.4605841 310.95732796 -299 259 C-299.27269711 254.17448043 -299.29026391 249.34973332 -299.26074219 244.51782227 C-299.24998251 242.43411319 -299.2607455 240.3512622 -299.2734375 238.26757812 C-299.28790271 225.5558332 -297.83294093 213.18394636 -294.8125 200.8125 C-294.49212769 199.49330566 -294.49212769 199.49330566 -294.1652832 198.14746094 C-287.69748615 172.44134941 -276.55523496 149.68127561 -260.8125 128.4375 C-260.33780273 127.79482178 -259.86310547 127.15214355 -259.37402344 126.48999023 C-256.39250152 122.55760735 -253.18429409 119.04937901 -249.62597656 115.62988281 C-247.94031124 113.94016784 -246.44054909 112.16518474 -244.9375 110.3125 C-216.06403613 76.99200709 -168.3820334 57.95618766 -125.375 54.625 C-100.83654763 53.0023071 -77.82232518 56.39307281 -54 62 C-53.74734375 61.27039062 -53.4946875 60.54078125 -53.234375 59.7890625 C-51.90794385 56.79199971 -50.39275325 54.84802724 -48.25 52.375 C-44.05441868 47.37386707 -40.15712798 42.21240209 -36.3125 36.9375 C-30.93241615 29.56890072 -25.42607616 22.31632255 -19.79418945 15.13842773 C-19.25366943 14.44950439 -18.71314941 13.76058105 -18.15625 13.05078125 C-17.63417969 12.38643066 -17.11210937 11.72208008 -16.57421875 11.03759766 C-14.42088896 8.25042482 -12.34514972 5.40788058 -10.27929688 2.55541992 C-7.4678306 -0.86287238 -4.1519919 -0.42223646 0 0 Z " fill="#050506" transform="translate(365,1)"/>
<path d="M0 0 C9.19979188 5.25236345 17.13254958 12.59126875 24.75488281 19.87695312 C26.14046832 21.19807107 27.54254285 22.50183021 28.9453125 23.8046875 C63.42366105 56.78397742 82.03638367 104.94519126 83.17578125 152.171875 C83.51303734 183.04559895 77.828092 215.34761364 62.3046875 242.4140625 C59.6120384 249.36529848 61.66980164 257.49773601 62.76367188 264.65576172 C62.92948257 265.77228119 63.09529327 266.88880066 63.26612854 268.03915405 C63.62536435 270.45339113 63.98723244 272.8672377 64.35145569 275.28072739 C64.92841399 279.10585227 65.49785213 282.93203001 66.06530762 286.75857544 C67.47599325 296.26173629 68.89789098 305.76321015 70.3225708 315.26428223 C71.52702161 323.29769504 72.72557456 331.33193424 73.91603088 339.36743546 C74.47539943 343.12717164 75.04319766 346.88557339 75.61120605 350.64401245 C75.95544231 352.96296694 76.29925523 355.28198433 76.64257812 357.60107422 C76.80154068 358.63723877 76.96050323 359.67340332 77.12428284 360.7409668 C79.50002823 376.98823184 79.50002823 376.98823184 76.703125 381.8828125 C73.22065671 383.79817006 70.05711152 383.72065373 66.203125 383.2578125 C63.16354964 382.33647064 60.36207989 381.03226257 57.5 379.6640625 C56.67656601 379.28567734 55.85313202 378.90729218 55.00474548 378.5174408 C52.31434404 377.27782477 49.6340237 376.01782984 46.953125 374.7578125 C45.07605824 373.88901582 43.19819883 373.0219298 41.31958008 372.15649414 C38.44097062 370.83018401 35.56289237 369.50284729 32.68733215 368.16993713 C24.21924989 364.24662145 15.69688328 360.45415738 7.1557312 356.69320679 C-4.91746591 351.37435047 -16.91667871 345.94084074 -28.78515625 340.17578125 C-32.41088468 338.41960961 -36.08106278 336.81383955 -39.796875 335.2578125 C-39.466875 334.5978125 -39.136875 333.9378125 -38.796875 333.2578125 C-37.476875 333.5878125 -36.156875 333.9178125 -34.796875 334.2578125 C-35.126875 332.9378125 -35.456875 331.6178125 -35.796875 330.2578125 C-34.806875 329.5978125 -33.816875 328.9378125 -32.796875 328.2578125 C-31.9730794 326.29652495 -31.9730794 326.29652495 -31.796875 324.2578125 C-32.126875 323.5978125 -32.456875 322.9378125 -32.796875 322.2578125 C-27.09547705 322.78834888 -22.64832207 324.40345127 -17.484375 326.8203125 C-12.82015777 329.25930576 -12.82015777 329.25930576 -7.796875 330.2578125 C-7.796875 330.9178125 -7.796875 331.5778125 -7.796875 332.2578125 C-7.13075195 332.3520752 -6.46462891 332.44633789 -5.77832031 332.54345703 C-1.98261376 333.45290981 1.39255749 335.03198345 4.90625 336.6875 C6.02750023 337.20741768 6.02750023 337.20741768 7.17140198 337.73783875 C8.77210666 338.48053024 10.37173211 339.22555142 11.97036743 339.97268677 C16.13519965 341.91880067 20.30797292 343.84772889 24.48046875 345.77734375 C25.30943161 346.16113693 26.13839447 346.54493011 26.99247742 346.94035339 C36.05252867 351.12722022 45.18020174 355.15071065 54.33067322 359.13581848 C55.24425063 359.53370481 56.15782804 359.93159113 57.09908962 360.34153461 C57.7934213 360.64390632 58.48775297 360.94627802 59.203125 361.2578125 C57.42227364 347.27433951 55.5245183 333.31491303 53.44782257 319.37234497 C52.71521011 314.44450275 51.99350935 309.51505422 51.26953125 304.5859375 C50.35737358 298.3813614 49.44204905 292.17729116 48.51708984 285.97460938 C47.75943197 280.89188947 47.01141784 275.80783158 46.26979828 270.7227478 C45.98787424 268.80215261 45.70240998 266.88207345 45.41324615 264.96255493 C45.01146296 262.29269614 44.62202965 259.62130097 44.23535156 256.94921875 C44.11490982 256.16895325 43.99446808 255.38868774 43.87037659 254.58477783 C42.7762321 246.84196118 43.96665609 241.10025321 47.765625 234.2578125 C68.57168508 194.52335865 71.14594502 146.8721002 57.88134766 104.38378906 C57.54562744 103.33143066 57.54562744 103.33143066 57.203125 102.2578125 C56.99349121 101.59749023 56.78385742 100.93716797 56.56787109 100.25683594 C50.804608 82.58992784 41.76981931 65.78941541 30.203125 51.2578125 C29.5539209 50.43941895 29.5539209 50.43941895 28.89160156 49.60449219 C18.20869231 36.28402025 6.18462298 23.41319661 -8.58984375 14.58984375 C-11.215241 13.00531196 -11.97719761 12.20865112 -12.796875 9.2578125 C-12.57869318 3.03963068 -12.57869318 3.03963068 -9.921875 0.3828125 C-5.96432362 -1.71236176 -4.07294774 -1.89956806 0 0 Z " fill="#040506" transform="translate(360.796875,87.7421875)"/>
<path d="M0 0 C5.27459151 1.09129479 10.40105676 2.3943881 15.5625 3.9375 C49.40592552 13.75355849 88.03472996 13.05911999 121.4765625 2.05078125 C129.22237864 -0.25922378 133.32661764 -0.01710067 140.4375 3.4375 C141.16904297 3.77587891 141.90058594 4.11425781 142.65429688 4.46289062 C144.44344621 5.29314947 146.22279721 6.1444678 148 7 C148 7.66 148 8.32 148 9 C104.08292408 35.31991699 54.81931154 46.71559466 4.19604492 34.20263672 C-3.35089003 32.22758298 -10.75709758 29.91343715 -18 27 C-17.45342308 22.80957695 -14.938749 20.05601727 -12.375 16.875 C-11.4669932 15.72404004 -10.56075917 14.57167943 -9.65625 13.41796875 C-9.20765625 12.8461084 -8.7590625 12.27424805 -8.296875 11.68505859 C-5.38197209 7.89766027 -2.69130023 3.94783444 0 0 Z " fill="#FCBF20" transform="translate(189,422)"/>
<path d="M0 0 C7.40673509 4.28575196 11.94340407 9.08576601 14.3359375 17.33203125 C15.85663347 24.60554877 14.52353917 30.96974267 10.75 37.3125 C6.02289614 42.60403417 1.17743761 46.7807128 -6.046875 47.6484375 C-13.99515261 47.75357345 -20.14884482 46.92599346 -26.25390625 41.546875 C-31.67398061 35.79865417 -34.30138945 30.2036344 -34.6875 22.3125 C-34.42804065 14.62306842 -30.61521234 8.67771234 -25.25 3.3125 C-17.50361903 -1.44165146 -8.63443814 -4.12589722 0 0 Z " fill="#FBBE1F" transform="translate(268.25,294.6875)"/>
<path d="M0 0 C0.33 0 0.66 0 1 0 C1 15.51 1 31.02 1 47 C0.34 47 -0.32 47 -1 47 C-1.495 39.575 -1.495 39.575 -2 32 C-2.66 32 -3.32 32 -4 32 C-5.81659796 35.11684989 -6.24884109 37.37338006 -6.24291992 40.96459961 C-6.24599655 41.94919662 -6.24907318 42.93379364 -6.25224304 43.94822693 C-6.24505753 45.00558548 -6.23787201 46.06294403 -6.23046875 47.15234375 C-6.23001053 48.24462784 -6.22955231 49.33691193 -6.2290802 50.46229553 C-6.22606041 52.77134284 -6.21818228 55.08038816 -6.20581055 57.3894043 C-6.18758782 60.92048377 -6.18530072 64.45130034 -6.18554688 67.98242188 C-6.1806301 70.22656476 -6.17480109 72.47070588 -6.16796875 74.71484375 C-6.16685593 75.77017807 -6.1657431 76.82551239 -6.16459656 77.91282654 C-6.15821671 78.90057571 -6.15183685 79.88832489 -6.14526367 80.90600586 C-6.14145187 81.77108261 -6.13764008 82.63615936 -6.13371277 83.52745056 C-5.99449407 86.10181291 -5.5390291 88.48228583 -5 91 C-4.88321201 93.67678073 -4.9545494 96.31841457 -5 99 C-5.33 99 -5.66 99 -6 99 C-8.28211346 86.75335089 -9.4850904 74.92477394 -9.39111328 62.46557617 C-9.37497889 59.93418748 -9.39111075 57.40438908 -9.41015625 54.87304688 C-9.43180093 39.37845596 -7.1360399 24.75651757 -2.8125 9.875 C-2.53986328 8.90691406 -2.26722656 7.93882812 -1.98632812 6.94140625 C-1.33269891 4.62503605 -0.6707822 2.31144841 0 0 Z " fill="#F5C13C" transform="translate(66,221)"/>
<path d="M0 0 C0.495 1.485 0.495 1.485 1 3 C-0.30309444 4.46598124 -1.60716423 5.93114611 -2.921875 7.38671875 C-4.31610386 9.11205532 -4.31610386 9.11205532 -3.75 12.125 C-3.5025 13.07375 -3.255 14.0225 -3 15 C-3.4375 17.375 -3.4375 17.375 -4 19 C-4.66 19 -5.32 19 -6 19 C-6.33 20.32 -6.66 21.64 -7 23 C-8.2375 23.020625 -9.475 23.04125 -10.75 23.0625 C-13.4584516 23.36984203 -14.60413263 23.54758015 -16.421875 25.625 C-17.65614585 27.77001463 -17.65614585 27.77001463 -19 31 C-24.11476819 31.63934602 -27.67254378 29.40533547 -32 27 C-27.74938644 25.58312881 -25.28148375 26.80679961 -21 28 C-20.61255615 27.47156494 -20.2251123 26.94312988 -19.82592773 26.39868164 C-18.03110715 23.95231477 -16.23431309 21.50740373 -14.4375 19.0625 C-13.82841797 18.23169922 -13.21933594 17.40089844 -12.59179688 16.54492188 C-8.48340935 10.95838434 -4.28609729 5.45136197 0 0 Z " fill="#040504" transform="translate(256,135)"/>
<path d="M0 0 C3.1875 0.3125 3.1875 0.3125 5.625 1.875 C7.32191855 4.52219293 7.697512 6.06636817 7.08203125 9.1640625 C5.04179338 14.06419713 1.4654191 18.18336729 -1.8125 22.3125 C-2.1425 21.6525 -2.4725 20.9925 -2.8125 20.3125 C-3.4725 19.9825 -4.1325 19.6525 -4.8125 19.3125 C-3.4925 18.9825 -2.1725 18.6525 -0.8125 18.3125 C-0.05822703 13.33343741 -0.05822703 13.33343741 0.1875 8.3125 C0.8475 8.3125 1.5075 8.3125 2.1875 8.3125 C2.1875 7.6525 2.1875 6.9925 2.1875 6.3125 C-0.052335 5.36229584 -0.052335 5.36229584 -2.8125 5.3125 C-5.52067728 7.52052268 -5.52067728 7.52052268 -7.8125 10.3125 C-8.8125 11.3125 -9.8125 12.3125 -10.8125 13.3125 C-11.4725 12.9825 -12.1325 12.6525 -12.8125 12.3125 C-11.33399287 10.49946196 -9.85467625 8.68708402 -8.375 6.875 C-7.13943359 5.36099609 -7.13943359 5.36099609 -5.87890625 3.81640625 C-3.00486641 0.33387405 -3.00486641 0.33387405 0 0 Z " fill="#150C03" transform="translate(284.8125,223.6875)"/>
<path d="M0 0 C2.31 0.66 4.62 1.32 7 2 C9.49356342 2.34904552 9.49356342 2.34904552 11.83984375 2.4140625 C12.67451172 2.45273437 13.50917969 2.49140625 14.36914062 2.53125 C15.21669922 2.5621875 16.06425781 2.593125 16.9375 2.625 C17.81212891 2.66367187 18.68675781 2.70234375 19.58789062 2.7421875 C21.72494631 2.8356107 23.86244294 2.91885398 26 3 C25.67 3.66 25.34 4.32 25 5 C21.4356497 5.23701562 17.89210737 5.25095644 14.3203125 5.265625 C10.71672157 5.65241303 10.71672157 5.65241303 9.0546875 9.046875 C8.70664063 10.02140625 8.35859375 10.9959375 8 12 C7.67 11.34 7.34 10.68 7 10 C7.33 9.01 7.66 8.02 8 7 C2.7320127 6.68392076 -0.59876455 7.00341416 -5 10 C-7.19260089 12.54381842 -9.131948 15.2111706 -11 18 C-11.66 17.67 -12.32 17.34 -13 17 C-6.565 8.585 -6.565 8.585 0 0 Z " fill="#F8BF26" transform="translate(242,352)"/>
<path d="M0 0 C0.66 1.32 1.32 2.64 2 4 C0.35 4.33 -1.3 4.66 -3 5 C-3.66 7.31 -4.32 9.62 -5 12 C-6.051875 12.12375 -6.051875 12.12375 -7.125 12.25 C-10.17904876 12.87261424 -10.17904876 12.87261424 -13 15.0625 C-16.1114613 17.07198542 -17.40260322 17.42322315 -21 17 C-21 17.66 -21 18.32 -21 19 C-25.24994263 19.05805933 -29.49978324 19.09361654 -33.75 19.125 C-34.9565625 19.14175781 -36.163125 19.15851563 -37.40625 19.17578125 C-38.56640625 19.18222656 -39.7265625 19.18867188 -40.921875 19.1953125 C-41.99018555 19.20578613 -43.05849609 19.21625977 -44.15917969 19.22705078 C-46.97979105 19.00161519 -48.60787463 18.45848994 -51 17 C-51 16.34 -51 15.68 -51 15 C-53.97 14.01 -56.94 13.02 -60 12 C-60.33 10.35 -60.66 8.7 -61 7 C-60.46632812 7.38671875 -59.93265625 7.7734375 -59.3828125 8.171875 C-48.20692941 15.9833919 -38.52511514 18.51754913 -25 17 C-14.42220248 14.83315421 -6.41120034 8.47932948 0 0 Z " fill="#E0B237" transform="translate(229,250)"/>
<path d="M0 0 C0.73323486 0.0707373 1.46646973 0.14147461 2.22192383 0.21435547 C10.95902649 0.97948227 19.61946118 1.1546757 28.38500977 1.13037109 C30.69489019 1.12498276 33.00457834 1.1303669 35.31445312 1.13671875 C42.93464242 1.13978313 50.42749702 0.95128153 58 0 C58 0.66 58 1.32 58 2 C56.741875 2.103125 55.48375 2.20625 54.1875 2.3125 C51.39500343 2.64858808 50.25566879 2.80025876 48 4.5625 C47.67 5.036875 47.34 5.51125 47 6 C47 5.34 47 4.68 47 4 C45.9805127 4.03552979 44.96102539 4.07105957 43.91064453 4.10766602 C40.13509557 4.23784861 36.35934629 4.36107415 32.58349609 4.48217773 C30.94801607 4.53561099 29.31259689 4.5909414 27.67724609 4.64819336 C25.32923506 4.73006761 22.9810911 4.80515983 20.6328125 4.87890625 C19.89942657 4.90594131 19.16604065 4.93297638 18.41043091 4.96083069 C13.22774341 5.11387171 13.22774341 5.11387171 11 4 C11 3.34 11 2.68 11 2 C7.37 2 3.74 2 0 2 C0 1.34 0 0.68 0 0 Z " fill="#EEBC3B" transform="translate(224,431)"/>
<path d="M0 0 C1.41655793 -0.0272415 2.83327045 -0.04650467 4.25 -0.0625 C5.43335938 -0.07990234 5.43335938 -0.07990234 6.640625 -0.09765625 C9.75926966 0.03142672 12.21213393 0.60606696 15 2 C14.67 2.99 14.34 3.98 14 5 C14.24504174 7.53068972 14.63771511 10.01702943 15.0390625 12.52734375 C14.98987278 15.64105297 14.13514225 16.78914349 12 19 C11.319375 19.144375 10.63875 19.28875 9.9375 19.4375 C9.298125 19.623125 8.65875 19.80875 8 20 C6.80161791 22.32854463 6.80161791 22.32854463 6 25 C5.34786461 26.34050052 4.68620031 27.67661368 4 29 C2.35 29 0.7 29 -1 29 C2.0873704 24.21627224 5.22904934 19.70152577 8.9375 15.375 C11.30437091 12.44713756 11.30437091 12.44713756 12.2890625 8.9140625 C12.1073936 6.77605208 12.1073936 6.77605208 11 4 C8.22899606 2.61449803 6.0665294 2.8122533 3 3 C2.01 3.66 1.02 4.32 0 5 C0 3.35 0 1.7 0 0 Z " fill="#E7B42F" transform="translate(304,241)"/>
<path d="M0 0 C0.33 0.99 0.66 1.98 1 3 C0.360625 3.763125 -0.27875 4.52625 -0.9375 5.3125 C-3.42120427 8.54884193 -3.25908447 10.02737146 -3 14 C-3.33 14.99 -3.66 15.98 -4 17 C-4.66 17 -5.32 17 -6 17 C-6 18.65 -6 20.3 -6 22 C-6.99 22 -7.98 22 -9 22 C-9 21.34 -9 20.68 -9 20 C-10.98 20.99 -12.96 21.98 -15 23 C-13.55431179 16.96666121 -10.14976797 12.88378868 -6.375 8.125 C-5.76398438 7.34125 -5.15296875 6.5575 -4.5234375 5.75 C-3.02289937 3.82743552 -1.5150345 1.91114693 0 0 Z " fill="#0F0B02" transform="translate(239,280)"/>
<path d="M0 0 C1 1 1 1 1.3125 4.8125 C1.28346793 8.04667254 1.1489442 8.80140774 -0.875 11.5 C-3 13 -3 13 -5 13 C-4.67 11.35 -4.34 9.7 -4 8 C-4.99 7.67 -5.98 7.34 -7 7 C-7 6.34 -7 5.68 -7 5 C-7.66 4.67 -8.32 4.34 -9 4 C-8.67 3.01 -8.34 2.02 -8 1 C-5.26752652 -0.36623674 -3.01801098 -0.128426 0 0 Z " fill="#040508" transform="translate(338,263)"/>
<path d="M0 0 C-2.40480067 2.40480067 -3.84283734 2.56738508 -7.125 3.3125 C-13.03939063 4.84931016 -19.07969222 6.91080922 -22.4375 12.3125 C-24 14 -24 14 -26.171875 14.24609375 C-28.46188493 14.24964967 -30.71696515 14.17230452 -33 14 C-33 14.66 -33 15.32 -33 16 C-34.32 15.67 -35.64 15.34 -37 15 C-33.40203359 13.07152992 -29.79556533 11.15949919 -26.1875 9.25 C-25.18267578 8.71117188 -24.17785156 8.17234375 -23.14257812 7.6171875 C-5.32915629 -1.77638543 -5.32915629 -1.77638543 0 0 Z " fill="#F5C037" transform="translate(181,111)"/>
<path d="M0 0 C1.2375 -0.020625 2.475 -0.04125 3.75 -0.0625 C4.44609375 -0.07410156 5.1421875 -0.08570313 5.859375 -0.09765625 C8.03292403 0.00150201 9.91306537 0.40306149 12 1 C12.05437607 2.58294782 12.09296271 4.16644256 12.125 5.75 C12.14820313 6.63171875 12.17140625 7.5134375 12.1953125 8.421875 C11.99139502 11.1135858 11.36551721 12.69904974 10 15 C9.34 15 8.68 15 8 15 C7.731875 15.7425 7.46375 16.485 7.1875 17.25 C6.04738177 19.8902738 4.74857073 21.74142947 3 24 C2.71125 24.639375 2.4225 25.27875 2.125 25.9375 C0.56154647 28.80383147 -1.6704478 30.72591333 -4 33 C-5.35555293 34.64864545 -6.69631653 36.31003995 -8 38 C-8.66 37.67 -9.32 37.34 -10 37 C-9.39414062 36.22398437 -8.78828125 35.44796875 -8.1640625 34.6484375 C-5.90929403 31.75003265 -3.68109431 28.83206585 -1.45947266 25.90820312 C-0.49005886 24.64073269 0.48680871 23.37892709 1.47119141 22.12304688 C2.89562871 20.30412795 4.29325993 18.46712028 5.6875 16.625 C6.13335449 16.06731934 6.57920898 15.50963867 7.03857422 14.93505859 C9.40203668 11.75452688 10.00443683 10.16202654 9.89453125 6.1484375 C9.59933594 5.10945312 9.30414063 4.07046875 9 3 C6.04335481 1.5216774 3.25770263 1.93967217 0 2 C0 1.34 0 0.68 0 0 Z " fill="#E2B337" transform="translate(281,223)"/>
<path d="M0 0 C1.55734089 6.0962575 2.82195337 11.07389792 0 17 C-0.99 17.33 -1.98 17.66 -3 18 C-4.22969878 21.51190809 -4.22969878 21.51190809 -5 25 C-5.66 25 -6.32 25 -7 25 C-6.45339344 18.91121808 -5.07141474 13.71354433 -2.9375 8 C-2.65583984 7.22527344 -2.37417969 6.45054687 -2.08398438 5.65234375 C-1.39679702 3.76549033 -0.69945987 1.88233849 0 0 Z " fill="#F0BA29" transform="translate(93,181)"/>
<path d="M0 0 C0.33 0 0.66 0 1 0 C1 15.51 1 31.02 1 47 C0.34 47 -0.32 47 -1 47 C-1.02505615 46.0212793 -1.0501123 45.04255859 -1.07592773 44.03417969 C-1.17023983 40.39619296 -1.27040203 36.75838657 -1.37231445 33.12060547 C-1.41557338 31.54740626 -1.45725474 29.97416283 -1.49731445 28.40087891 C-1.55523662 26.13690885 -1.61886714 23.87315949 -1.68359375 21.609375 C-1.70030624 20.90818542 -1.71701874 20.20699585 -1.73423767 19.48455811 C-1.83428993 16.1718458 -2.15549484 13.1965261 -3 10 C-2.44140625 7.421875 -2.44140625 7.421875 -1.5625 4.75 C-1.27503906 3.85796875 -0.98757812 2.9659375 -0.69140625 2.046875 C-0.46324219 1.37140625 -0.23507813 0.6959375 0 0 Z " fill="#ECBC40" transform="translate(66,221)"/>
<path d="M0 0 C0.60328125 0.19851562 1.2065625 0.39703125 1.828125 0.6015625 C-0.1459018 3.27206964 -2.12692991 5.93730031 -4.109375 8.6015625 C-4.67333984 9.3646875 -5.23730469 10.1278125 -5.81835938 10.9140625 C-6.35654297 11.6359375 -6.89472656 12.3578125 -7.44921875 13.1015625 C-8.19546509 14.10703125 -8.19546509 14.10703125 -8.95678711 15.1328125 C-9.55825562 15.85984375 -9.55825562 15.85984375 -10.171875 16.6015625 C-10.501875 16.6015625 -10.831875 16.6015625 -11.171875 16.6015625 C-11.171875 14.2915625 -11.171875 11.9815625 -11.171875 9.6015625 C-9.851875 9.2715625 -8.531875 8.9415625 -7.171875 8.6015625 C-7.275 7.8590625 -7.378125 7.1165625 -7.484375 6.3515625 C-7.171875 3.6015625 -7.171875 3.6015625 -4.921875 1.2265625 C-2.171875 -0.3984375 -2.171875 -0.3984375 0 0 Z " fill="#F0BB2B" transform="translate(269.171875,115.3984375)"/>
<path d="M0 0 C0 3 0 3 -0.5 5.8125 C-0.98967613 8.93418536 -1.07508141 11.84658081 -1 15 C-1.66 15 -2.32 15 -3 15 C-3.33 15.66 -3.66 16.32 -4 17 C-5.65 15.68 -7.3 14.36 -9 13 C-7.8782037 11.2063257 -6.75245517 9.4151227 -5.625 7.625 C-4.99851563 6.62726563 -4.37203125 5.62953125 -3.7265625 4.6015625 C-2 2 -2 2 0 0 Z " fill="#130D04" transform="translate(169,199)"/>
<path d="M0 0 C2.97 0.495 2.97 0.495 6 1 C2.72243905 7.28199181 -1.48636368 12.55515231 -6 18 C-6.66 16.68 -7.32 15.36 -8 14 C-7.34 14 -6.68 14 -6 14 C-5.54625 13.0925 -5.0925 12.185 -4.625 11.25 C-3.72496142 9.44992284 -2.81664624 7.65366511 -1.875 5.875 C-0.97022473 3.93619585 -0.44740748 2.08790157 0 0 Z " fill="#EEB72F" transform="translate(220,346)"/>
<path d="M0 0 C2.19411153 1.01869464 3.97174479 1.97564206 5.8125 3.5625 C8.78696154 5.51714615 11.49022184 5.57640608 15 6 C17.01416562 6.62256028 19.02015519 7.27566653 21 8 C21 7.34 21 6.68 21 6 C22.5778125 5.7834375 22.5778125 5.7834375 24.1875 5.5625 C27.15460549 5.12473034 30.06794366 4.62195134 33 4 C29.98384746 7.49238715 26.7594915 8.78866443 22.203125 9.3359375 C15.35857443 9.42647388 9.80690479 8.8426241 4 5 C1.4375 2.25 1.4375 2.25 0 0 Z " fill="#DEB136" transform="translate(240,333)"/>
<path d="M0 0 C0.33 0.99 0.66 1.98 1 3 C-0.81765782 6.09675036 -2.86720095 8.83595412 -5.125 11.625 C-6.76779496 13.70587362 -7.92873974 15.58966442 -9 18 C-14.11476819 18.63934602 -17.67254378 16.40533547 -22 14 C-19 13 -19 13 -11 15 C-7.37 10.05 -3.74 5.1 0 0 Z " fill="#1C0E00" transform="translate(246,148)"/>
<path d="M0 0 C1.65 0 3.3 0 5 0 C3.29055213 3.91828502 0.73118655 7.14918873 -1.875 10.5 C-2.30941406 11.06847656 -2.74382812 11.63695312 -3.19140625 12.22265625 C-5.6170273 15.36212373 -8.12164739 18.26891194 -11 21 C-10.125 16.25 -10.125 16.25 -9 14 C-8.01 14 -7.02 14 -6 14 C-5.8453125 13.13375 -5.8453125 13.13375 -5.6875 12.25 C-5 10 -5 10 -3.5625 8.125 C-1.6747986 5.5577261 -0.89779129 3.03867821 0 0 Z " fill="#190E01" transform="translate(307,309)"/>
<path d="M0 0 C2.31 0.66 4.62 1.32 7 2 C9.63966722 2.27566968 12.28721063 2.48427667 14.9375 2.625 C15.62134766 2.66367187 16.30519531 2.70234375 17.00976562 2.7421875 C18.67279513 2.83522412 20.33635847 2.91863787 22 3 C22 3.33 22 3.66 22 4 C21.34926514 3.97381592 20.69853027 3.94763184 20.02807617 3.9206543 C17.08146277 3.81676138 14.13523399 3.7517008 11.1875 3.6875 C10.16333984 3.64560547 9.13917969 3.60371094 8.08398438 3.56054688 C5.3062323 3.51500996 2.73737869 3.52091515 0 4 C-2.17215871 6.22422897 -2.17215871 6.22422897 -3 9 C-4.6459651 10.68711423 -6.31237149 12.3545622 -8 14 C-9.02813611 15.31175986 -10.04084432 16.6369893 -11 18 C-11.66 17.67 -12.32 17.34 -13 17 C-6.565 8.585 -6.565 8.585 0 0 Z " fill="#D0A738" transform="translate(242,352)"/>
<path d="M0 0 C0.33 0 0.66 0 1 0 C1.33 1.65 1.66 3.3 2 5 C2.66 5 3.32 5 4 5 C3.98839844 5.78246094 3.97679688 6.56492187 3.96484375 7.37109375 C3.95582031 8.38300781 3.94679688 9.39492188 3.9375 10.4375 C3.92589844 11.44683594 3.91429688 12.45617187 3.90234375 13.49609375 C3.71387324 15.94021067 3.71387324 15.94021067 5 17 C5.144375 18.03125 5.28875 19.0625 5.4375 20.125 C5.9859059 23.90290729 6.89831324 27.3506626 8 31 C8.34135927 32.33130115 8.67925956 33.66358148 9 35 C8.34 35 7.68 35 7 35 C3.33861573 23.32568211 0.0414529 12.33223888 0 0 Z " fill="#E8B73B" transform="translate(84,267)"/>
<path d="M0 0 C3 0.9375 3 0.9375 4.9375 2.625 C6.47188575 5.96454546 6.1454838 7.43366721 5 10.9375 C3.16474195 13.74615459 1.14171858 16.35695835 -1 18.9375 C-1.66 17.6175 -2.32 16.2975 -3 14.9375 C-2.175 14.4425 -1.35 13.9475 -0.5 13.4375 C2.15002759 11.27477308 2.15002759 11.27477308 2.33203125 8.890625 C2.31441262 6.90324402 2.16504949 4.91809391 2 2.9375 C-0.64 2.9375 -3.28 2.9375 -6 2.9375 C-4.06996773 0.25689963 -3.3864475 -0.07055099 0 0 Z " fill="#1D0D00" transform="translate(336,261.0625)"/>
<path d="M0 0 C1.24546405 2.49092811 0.7767578 3.41080733 0 6 C-1.32 6.33 -2.64 6.66 -4 7 C-4 8.65 -4 10.3 -4 12 C-3.34 12 -2.68 12 -2 12 C-2 12.99 -2 13.98 -2 15 C-1.34 15 -0.68 15 0 15 C1.59138085 19.17737474 2.21278058 22.53160785 2 27 C0.32381052 24.48571578 -0.77988088 22.31940014 -1.9375 19.5625 C-3.08363695 16.88529709 -3.99848701 15.00181559 -5.875 12.75 C-7 11 -7 11 -6.5 8.625 C-4.64433287 5.37758252 -2.47679905 2.80269367 0 0 Z " fill="#E8B83A" transform="translate(255,164)"/>
<path d="M0 0 C-1.60032137 0.84069415 -3.20541171 1.67231505 -4.8125 2.5 C-5.70582031 2.9640625 -6.59914062 3.428125 -7.51953125 3.90625 C-10 5 -10 5 -13 5 C-13.226875 5.804375 -13.45375 6.60875 -13.6875 7.4375 C-14.3371875 8.7059375 -14.3371875 8.7059375 -15 10 C-17.375 10.6875 -17.375 10.6875 -20 11 C-21.34854813 11.63532682 -22.68505333 12.29776252 -24 13 C-19.79401012 7.27655495 -15.38634868 4.03942891 -9 1 C-8.071875 0.54625 -7.14375 0.0925 -6.1875 -0.375 C-3.6729891 -1.09343169 -2.46461912 -0.71303446 0 0 Z " fill="#180A00" transform="translate(212,162)"/>
<path d="M0 0 C1.32 0.33 2.64 0.66 4 1 C4.103125 1.639375 4.20625 2.27875 4.3125 2.9375 C4.539375 3.618125 4.76625 4.29875 5 5 C5.99 5.33 6.98 5.66 8 6 C8.33 5.34 8.66 4.68 9 4 C9.66 4 10.32 4 11 4 C10.67 3.01 10.34 2.02 10 1 C11.32 1 12.64 1 14 1 C12.59023295 4.03852705 10.91129772 6.5939595 8.875 9.25 C8.33617187 9.95640625 7.79734375 10.6628125 7.2421875 11.390625 C6.83226562 11.92171875 6.42234375 12.4528125 6 13 C4.1727089 10.25906335 3.06301822 7.86174676 1.875 4.8125 C1.52179688 3.91144531 1.16859375 3.01039063 0.8046875 2.08203125 C0.53914063 1.39496094 0.27359375 0.70789063 0 0 Z " fill="#E6B437" transform="translate(290,296)"/>
<path d="M0 0 C-4.02508985 5.35884744 -8.02557651 10.48831358 -13 15 C-13.66 15 -14.32 15 -15 15 C-14.00102287 12.00306862 -13.34869747 10.97290587 -11 9 C-10.34 9 -9.68 9 -9 9 C-8.855625 8.4225 -8.71125 7.845 -8.5625 7.25 C-8.2840625 6.13625 -8.2840625 6.13625 -8 5 C-7.9175 4.29875 -7.835 3.5975 -7.75 2.875 C-7 1 -7 1 -4.5625 -0.3125 C-2 -1 -2 -1 0 0 Z " fill="#1B0F01" transform="translate(294,334)"/>
<path d="M0 0 C0.66 0.33 1.32 0.66 2 1 C1.01 2.485 1.01 2.485 0 4 C0 4.99 0 5.98 0 7 C-1.32 7 -2.64 7 -4 7 C-4.66 8.32 -5.32 9.64 -6 11 C-6.66 11 -7.32 11 -8 11 C-8 12.65 -8 14.3 -8 16 C-8.66 16 -9.32 16 -10 16 C-10 18.97 -10 21.94 -10 25 C-10.33 25 -10.66 25 -11 25 C-11.65734544 16.08931735 -9.93379479 10.50686975 -4.375 3.5625 C-2 1 -2 1 0 0 Z " fill="#D3A834" transform="translate(245,297)"/>
<path d="M0 0 C0.99 0.99 1.98 1.98 3 3 C2.01 4.485 2.01 4.485 1 6 C-2.125 6.1875 -2.125 6.1875 -5 6 C-5.33 6.99 -5.66 7.98 -6 9 C-7.74300413 10.03289134 -9.49004837 11.06142213 -11.27734375 12.015625 C-13.1772668 13.10129531 -14.58356569 14.33360669 -16 16 C-16.66 15.67 -17.32 15.34 -18 15 C-16.12971875 13.24471987 -14.2540838 11.49581545 -12.375 9.75 C-11.59189453 9.01330078 -11.59189453 9.01330078 -10.79296875 8.26171875 C-7.38645667 5.1075409 -3.9280064 2.47712115 0 0 Z " fill="#EFBB38" transform="translate(127,138)"/>
<path d="M0 0 C1.98 0.66 3.96 1.32 6 2 C4.02 4.97 4.02 4.97 2 8 C-1.95820859 7.43454163 -4.6659053 6.19097652 -8 4 C-6 3 -6 3 -3.4375 2.5625 C-2.2309375 2.2840625 -2.2309375 2.2840625 -1 2 C-0.67 1.34 -0.34 0.68 0 0 Z " fill="#F0BA30" transform="translate(154,433)"/>
<path d="M0 0 C0.99 0.33 1.98 0.66 3 1 C3 1.66 3 2.32 3 3 C3.66 3 4.32 3 5 3 C3.22054913 7.04420651 0.60470327 10.46078487 -2 14 C-2.33 13.01 -2.66 12.02 -3 11 C-3.66 10.34 -4.32 9.68 -5 9 C-4.01 8.34 -3.02 7.68 -2 7 C-2 7.66 -2 8.32 -2 9 C-1.34 9 -0.68 9 0 9 C-0.66 6.69 -1.32 4.38 -2 2 C-1.34 1.34 -0.68 0.68 0 0 Z " fill="#F2BC29" transform="translate(299,242)"/>
<path d="M0 0 C1.45880109 0.14107747 2.91703551 0.28802415 4.375 0.4375 C5.59316406 0.55931641 5.59316406 0.55931641 6.8359375 0.68359375 C9 1 9 1 11 2 C10.67 3.32 10.34 4.64 10 6 C12.31 6 14.62 6 17 6 C15 8 15 8 12.4375 8.5625 C7.23507626 7.7111943 3.80910074 4.52976669 0 1 C0 0.67 0 0.34 0 0 Z " fill="#1D1303" transform="translate(129,385)"/>
<path d="M0 0 C7.72654999 -0.70359814 14.09499174 -0.06749245 21.25 2.8125 C21.90556885 3.07305176 22.5611377 3.33360352 23.23657227 3.60205078 C25.078125 4.39453125 25.078125 4.39453125 28 6 C28.33 6.99 28.66 7.98 29 9 C26.06381933 8.12708142 23.30155947 7.15490736 20.57421875 5.75390625 C13.49477732 2.13734645 7.90383256 1.37928017 0 2 C0 1.34 0 0.68 0 0 Z " fill="#DDAF36" transform="translate(312,405)"/>
<path d="M0 0 C0 3 0 3 -1 6 C-1.99 6.495 -1.99 6.495 -3 7 C-3.268125 7.7425 -3.53625 8.485 -3.8125 9.25 C-5.27817613 12.64419736 -7.3359475 14.46590128 -10 17 C-10.556875 17.763125 -11.11375 18.52625 -11.6875 19.3125 C-12.120625 19.869375 -12.55375 20.42625 -13 21 C-13.66 21 -14.32 21 -15 21 C-13.3514785 17.30412114 -11.0660195 14.27799579 -8.625 11.0625 C-7.85414063 10.04285156 -7.08328125 9.02320313 -6.2890625 7.97265625 C-4.2228673 5.28942324 -2.12615662 2.6358517 0 0 Z " fill="#1D1101" transform="translate(224,350)"/>
<path d="M0 0 C0.99 0.33 1.98 0.66 3 1 C2.44449305 4.59905908 1.25112752 5.99909799 -1.5625 8.25 C-2.20316406 8.77078125 -2.84382813 9.2915625 -3.50390625 9.828125 C-3.99761719 10.21484375 -4.49132812 10.6015625 -5 11 C-5.75 8.8125 -5.75 8.8125 -6 6 C-4.22336478 3.30441552 -2.90715555 1.45357777 0 0 Z " fill="#F8C02A" transform="translate(362,403)"/>
<path d="M0 0 C0.33 0.66 0.66 1.32 1 2 C0.01 3.485 0.01 3.485 -1 5 C-1.66 5 -2.32 5 -3 5 C-3.20625 5.598125 -3.4125 6.19625 -3.625 6.8125 C-5.54881498 9.87311475 -7.68750124 10.6750005 -11 12 C-12.32 12 -13.64 12 -15 12 C-15.33 11.34 -15.66 10.68 -16 10 C-14.96875 9.5875 -13.9375 9.175 -12.875 8.75 C-7.99020022 6.65368916 -3.58172525 3.97969473 0 0 Z " fill="#E5B337" transform="translate(286,343)"/>
<path d="M0 0 C0.33 0.99 0.66 1.98 1 3 C-0.66247014 5.00348966 -2.32932867 7.00334402 -4 9 C-4 10.32 -4 11.64 -4 13 C-5.65 13.33 -7.3 13.66 -9 14 C-8.67 15.98 -8.34 17.96 -8 20 C-9.5625 18.75 -9.5625 18.75 -11 17 C-10.38124923 12.58567944 -7.63918232 9.63174816 -4.9375 6.25 C-4.46505859 5.64800781 -3.99261719 5.04601562 -3.50585938 4.42578125 C-2.34309599 2.94590057 -1.1723234 1.47231904 0 0 Z " fill="#E0B337" transform="translate(298,276)"/>
<path d="M0 0 C0.33 0.66 0.66 1.32 1 2 C0.61328125 2.4846875 0.2265625 2.969375 -0.171875 3.46875 C-3.39863107 7.62200039 -5.94284035 11.56091153 -7.9453125 16.43359375 C-9 18 -9 18 -11.1171875 18.72265625 C-11.73851562 18.81417969 -12.35984375 18.90570313 -13 19 C-11.68779266 16.22561876 -10.22517631 13.79209828 -8.3984375 11.328125 C-7.90859375 10.66425781 -7.41875 10.00039062 -6.9140625 9.31640625 C-6.40617188 8.63449219 -5.89828125 7.95257813 -5.375 7.25 C-4.859375 6.55261719 -4.34375 5.85523438 -3.8125 5.13671875 C-2.54440881 3.42244733 -1.2725711 1.71094844 0 0 Z " fill="#E6B534" transform="translate(243,231)"/>
<path d="M0 0 C0.99 0.66 1.98 1.32 3 2 C1.70910257 3.4590143 0.41725561 4.91718851 -0.875 6.375 C-1.59429687 7.18710938 -2.31359375 7.99921875 -3.0546875 8.8359375 C-4.33295938 10.25795079 -5.64794586 11.64794586 -7 13 C-7 12.01 -7 11.02 -7 10 C-7.66 9.67 -8.32 9.34 -9 9 C-7.6875 7.5 -7.6875 7.5 -6 6 C-5.01 6 -4.02 6 -3 6 C-3.33 4.35 -3.66 2.7 -4 1 C-2.68 1.33 -1.36 1.66 0 2 C0 1.34 0 0.68 0 0 Z " fill="#EBB82C" transform="translate(188,170)"/>
<path d="M0 0 C0.66 0.33 1.32 0.66 2 1 C-1.63 5.95 -5.26 10.9 -9 16 C-9.33 15.01 -9.66 14.02 -10 13 C-9.02248365 11.65009646 -8.01800576 10.31963709 -7 9 C-6.71125 7.989375 -6.4225 6.97875 -6.125 5.9375 C-5 3 -5 3 -2.5 1.0625 C-1.675 0.711875 -0.85 0.36125 0 0 Z " fill="#1A0E01" transform="translate(274,136)"/>
<path d="M0 0 C4.29 1.65 8.58 3.3 13 5 C13 5.66 13 6.32 13 7 C10.35261084 8.4606285 9.10551666 9 6 9 C5.67 7.02 5.34 5.04 5 3 C3.35 2.67 1.7 2.34 0 2 C0 1.34 0 0.68 0 0 Z " fill="#EEB830" transform="translate(324,424)"/>
<path d="M0 0 C0.93423645 3.01031744 1.04449911 3.86650268 0 7 C2.31 7.66 4.62 8.32 7 9 C3.87819599 9.96661363 1.47916205 9.98988909 -1.75 9.5625 C-2.54921875 9.46066406 -3.3484375 9.35882813 -4.171875 9.25390625 C-4.77515625 9.17011719 -5.3784375 9.08632813 -6 9 C-2.25 2.25 -2.25 2.25 0 0 Z " fill="#E6B238" transform="translate(263,271)"/>
<path d="M0 0 C0.66 0.99 1.32 1.98 2 3 C0.73147606 4.60599349 -0.539911 6.20972575 -1.8125 7.8125 C-2.87404297 9.15248047 -2.87404297 9.15248047 -3.95703125 10.51953125 C-5.56411377 12.47076911 -7.17040423 14.26274976 -9 16 C-9.66 15.67 -10.32 15.34 -11 15 C-10.28972656 14.08476562 -9.57945312 13.16953125 -8.84765625 12.2265625 C-7.91918172 11.02611058 -6.99080118 9.82558597 -6.0625 8.625 C-5.59392578 8.02171875 -5.12535156 7.4184375 -4.64257812 6.796875 C-2.09448545 3.54591619 -2.09448545 3.54591619 0 0 Z " fill="#211301" transform="translate(271,237)"/>
<path d="M0 0 C1.65 0 3.3 0 5 0 C3.50923566 3.2826932 1.61379679 5.93077441 -0.625 8.75 C-1.57246094 9.94882813 -1.57246094 9.94882813 -2.5390625 11.171875 C-3.02117187 11.77515625 -3.50328125 12.3784375 -4 13 C-4.625 11.1875 -4.625 11.1875 -5 9 C-4.34 8.01 -3.68 7.02 -3 6 C-2.01 6 -1.02 6 0 6 C0 4.02 0 2.04 0 0 Z " fill="#EBB831" transform="translate(252,133)"/>
<path d="M0 0 C2.875 0.5625 2.875 0.5625 6 2 C7.87199505 6.31372772 8.3677563 9.4864042 7 14 C6.34 14 5.68 14 5 14 C4.67 14.99 4.34 15.98 4 17 C3.01 16.67 2.02 16.34 1 16 C1.66 15.46375 2.32 14.9275 3 14.375 C5.21513645 12.13439094 5.21513645 12.13439094 5.5625 9.125 C4.791155 4.83974998 2.97932689 3.12829324 0 0 Z M7 0 C7.33 0.66 7.66 1.32 8 2 C7.34 1.67 6.68 1.34 6 1 C6.33 0.67 6.66 0.34 7 0 Z " fill="#E7B934" transform="translate(143,376)"/>
<path d="M0 0 C0.33 0 0.66 0 1 0 C1.24234375 0.86882812 1.4846875 1.73765625 1.734375 2.6328125 C4.26060561 11.36870415 4.26060561 11.36870415 9 19 C7.02 18.67 5.04 18.34 3 18 C2.51171875 16.01432292 2.0234375 14.02864583 1.53515625 12.04296875 C1.08989295 10.34316798 0.55566015 8.66698046 0 7 C-0.03954234 4.66700175 -0.04401732 2.33291811 0 0 Z " fill="#211302" transform="translate(233,317)"/>
<path d="M0 0 C0.33 0 0.66 0 1 0 C1.33965474 2.18652739 1.67142477 4.37428025 2 6.5625 C2.185625 7.78066406 2.37125 8.99882812 2.5625 10.25390625 C2.98555077 13.87627848 3.07501425 17.35712046 3 21 C0.24072656 18.24072656 0.48216757 15.78845948 0 12 C-0.33 11.67 -0.66 11.34 -1 11 C-1.14475933 7.1638778 -1.17661508 3.67692213 0 0 Z " fill="#2E1F03" transform="translate(82,260)"/>
<path d="M0 0 C0.66 0.33 1.32 0.66 2 1 C0.73147606 2.60599349 -0.539911 4.20972575 -1.8125 5.8125 C-2.87404297 7.15248047 -2.87404297 7.15248047 -3.95703125 8.51953125 C-5.56411377 10.47076911 -7.17040423 12.26274976 -9 14 C-8.39169139 7.55192878 -8.39169139 7.55192878 -6.625 5.0625 C-5 4 -5 4 -2 4 C-2 3.01 -2 2.02 -2 1 C-1.34 0.67 -0.68 0.34 0 0 Z " fill="#181002" transform="translate(233,242)"/>
<path d="M0 0 C0.99 0.33 1.98 0.66 3 1 C1.35790421 3.16959299 -0.28842168 5.33572532 -1.9375 7.5 C-2.40607422 8.12003906 -2.87464844 8.74007812 -3.35742188 9.37890625 C-4.54790464 10.93766786 -5.77141292 12.47109164 -7 14 C-7.33 14 -7.66 14 -8 14 C-7.67 11.69 -7.34 9.38 -7 7 C-6.01 7.33 -5.02 7.66 -4 8 C-4 6.68 -4 5.36 -4 4 C-2.68 3.67 -1.36 3.34 0 3 C0 2.01 0 1.02 0 0 Z " fill="#EFBA33" transform="translate(175,187)"/>
<path d="M0 0 C-2.4236329 2.4236329 -4.00776965 2.6459746 -7.3125 3.4375 C-11.39675888 4.47722648 -14.3967179 5.81619267 -18 8 C-20.12890625 7.578125 -20.12890625 7.578125 -22 7 C-4.0475825 -1.34919417 -4.0475825 -1.34919417 0 0 Z " fill="#F1C348" transform="translate(181,111)"/>
<path d="M0 0 C0 3 0 6 0 9 C-0.8971875 9.1546875 -0.8971875 9.1546875 -1.8125 9.3125 C-4.28243264 10.08876455 -5.32251235 11.07088921 -7 13 C-7.66 12.67 -8.32 12.34 -9 12 C-6.03 8.04 -3.06 4.08 0 0 Z " fill="#EDB932" transform="translate(228,371)"/>
<path d="M0 0 C4 4 8 8 12 12 C11.01 12.33 10.02 12.66 9 13 C9 12.34 9 11.68 9 11 C6.36095629 9.58622659 3.92879371 8.62759865 1 8 C0.67 5.36 0.34 2.72 0 0 Z " fill="#160A01" transform="translate(121,355)"/>
<path d="M0 0 C0.99 0.33 1.98 0.66 3 1 C3 2.65 3 4.3 3 6 C3.66 6 4.32 6 5 6 C5 6.99 5 7.98 5 9 C7.475 9.99 7.475 9.99 10 11 C9.01 11.495 9.01 11.495 8 12 C8.33 13.65 8.66 15.3 9 17 C4.71884147 12.22486164 1.96240159 6.63843769 -1 1 C-0.67 0.67 -0.34 0.34 0 0 Z " fill="#E8B534" transform="translate(102,323)"/>
<path d="M0 0 C0.66 0.66 1.32 1.32 2 2 C1.67 2.99 1.34 3.98 1 5 C0.67 4.67 0.34 4.34 0 4 C-0.33 4.99 -0.66 5.98 -1 7 C-2.62339805 8.70884005 -4.29319053 10.37446717 -6 12 C-6.598125 12.598125 -7.19625 13.19625 -7.8125 13.8125 C-8.204375 14.204375 -8.59625 14.59625 -9 15 C-9.66 14.67 -10.32 14.34 -11 14 C-7.37 9.38 -3.74 4.76 0 0 Z " fill="#221402" transform="translate(252,263)"/>
<path d="M0 0 C0.99 0.33 1.98 0.66 3 1 C2.67 3.31 2.34 5.62 2 8 C1.01 8 0.02 8 -1 8 C-3.1875 5 -3.1875 5 -5 2 C-3.68 2 -2.36 2 -1 2 C-0.67 1.34 -0.34 0.68 0 0 Z " fill="#F6C02C" transform="translate(108,399)"/>
<path d="M0 0 C0.99 0.33 1.98 0.66 3 1 C1.61019248 2.13243576 0.21285323 3.25563119 -1.1875 4.375 C-1.96480469 5.00148438 -2.74210938 5.62796875 -3.54296875 6.2734375 C-6.00792513 8.00556901 -8.11532878 9.14073623 -11 10 C-11.99 9.67 -12.98 9.34 -14 9 C-11.93243723 6.2027092 -10.85559629 5.97307727 -7.3125 5.3125 C-6.219375 5.209375 -5.12625 5.10625 -4 5 C-4 4.34 -4 3.68 -4 3 C-2.1875 1.3125 -2.1875 1.3125 0 0 Z " fill="#231200" transform="translate(221,256)"/>
<path d="M0 0 C0.66 0 1.32 0 2 0 C2 0.66 2 1.32 2 2 C2.78375 1.649375 3.5675 1.29875 4.375 0.9375 C5.24125 0.628125 6.1075 0.31875 7 0 C7.66 0.33 8.32 0.66 9 1 C7.70700306 3.88437779 6.34058637 5.87219421 4 8 C4 7.34 4 6.68 4 6 C3.34 5.67 2.68 5.34 2 5 C1.34 4.34 0.68 3.68 0 3 C0 2.01 0 1.02 0 0 Z " fill="#100B02" transform="translate(248,160)"/>
<path d="M0 0 C2.64 1.98 5.28 3.96 8 6 C7.67 6.66 7.34 7.32 7 8 C5.68 7.34 4.36 6.68 3 6 C2.67 6.99 2.34 7.98 2 9 C0.68 8.67 -0.64 8.34 -2 8 C-1.67 7.05125 -1.34 6.1025 -1 5.125 C0.10159191 2.22937548 0.10159191 2.22937548 0 0 Z " fill="#F7BF34" transform="translate(358,149)"/>
<path d="M0 0 C1.32 0.33 2.64 0.66 4 1 C3.06981474 2.46300982 2.13055973 3.92025579 1.1875 5.375 C0.66542969 6.18710937 0.14335937 6.99921875 -0.39453125 7.8359375 C-2 10 -2 10 -5 12 C-3.85814266 7.52040582 -2.56984833 3.85477249 0 0 Z " fill="#EFB930" transform="translate(168,418)"/>
<path d="M0 0 C0.66 0.99 1.32 1.98 2 3 C-0.04368752 5.04368752 -2.08440618 7.07958297 -4.1875 9.0625 C-6.22022355 10.96539122 -6.22022355 10.96539122 -7 14 C-9.0625 14.6875 -9.0625 14.6875 -11 15 C-7.63737574 9.75430616 -3.86435321 4.88471613 0 0 Z " fill="#1C0F01" transform="translate(178,411)"/>
<path d="M0 0 C0.66 0.33 1.32 0.66 2 1 C0.68 7.6 -0.64 14.2 -2 21 C-2.33 21 -2.66 21 -3 21 C-2.505 12.09 -2.505 12.09 -2 3 C-1.34 3 -0.68 3 0 3 C0 2.01 0 1.02 0 0 Z " fill="#211303" transform="translate(87,192)"/>
<path d="M0 0 C4.455 0.99 4.455 0.99 9 2 C9 2.33 9 2.66 9 3 C4.545 3.495 4.545 3.495 0 4 C0 4.66 0 5.32 0 6 C-1.65 6.66 -3.3 7.32 -5 8 C-3.35 5.36 -1.7 2.72 0 0 Z " fill="#E0B434" transform="translate(189,422)"/>
<path d="M0 0 C0.33 0.99 0.66 1.98 1 3 C0.01 4.485 0.01 4.485 -1 6 C-1.66 6 -2.32 6 -3 6 C-3.2475 6.94875 -3.495 7.8975 -3.75 8.875 C-5 12 -5 12 -7.078125 13.1953125 C-7.71234375 13.46085938 -8.3465625 13.72640625 -9 14 C-8.07248802 12.0369164 -7.13263547 10.07965973 -6.1875 8.125 C-5.66542969 7.03445312 -5.14335938 5.94390625 -4.60546875 4.8203125 C-3 2 -3 2 0 0 Z " fill="#D9AB32" transform="translate(108,154)"/>
<path d="M0 0 C1.28132813 0.00902344 2.56265625 0.01804687 3.8828125 0.02734375 C4.87023437 0.03894531 5.85765625 0.05054688 6.875 0.0625 C6.875 0.3925 6.875 0.7225 6.875 1.0625 C0.13346717 2.32091946 -6.25984138 3.32654456 -13.125 3.0625 C-8.29812678 0.64906339 -5.53066888 -0.05027881 0 0 Z " fill="#261602" transform="translate(285.125,428.9375)"/>
<path d="M0 0 C0 4.71292944 -1.24395838 7.20615629 -4.5 10.625 C-5.325 11.40875 -6.15 12.1925 -7 13 C-7.99 14.485 -7.99 14.485 -9 16 C-9.66 16 -10.32 16 -11 16 C-9.32076975 12.19866558 -6.88537166 9.02917298 -4.375 5.75 C-3.95476562 5.19570313 -3.53453125 4.64140625 -3.1015625 4.0703125 C-2.07061281 2.71133337 -1.03570089 1.35536165 0 0 Z " fill="#251802" transform="translate(288,267)"/>
<path d="M0 0 C0.66 0.33 1.32 0.66 2 1 C0.85821872 2.66944521 -0.28852905 4.3354948 -1.4375 6 C-2.07558594 6.928125 -2.71367187 7.85625 -3.37109375 8.8125 C-3.90863281 9.534375 -4.44617188 10.25625 -5 11 C-5.33 11 -5.66 11 -6 11 C-6.25 5.375 -6.25 5.375 -4 2 C-2 0.75 -2 0.75 0 0 Z " fill="#170C01" transform="translate(272,256)"/>
<path d="M0 0 C0.33 0 0.66 0 1 0 C0.67 2.31 0.34 4.62 0 7 C-0.99 7 -1.98 7 -3 7 C-5.21168225 9.94236782 -5.21168225 9.94236782 -7 13 C-7.66 12.67 -8.32 12.34 -9 12 C-7.52464063 9.99708788 -6.04497707 7.99763223 -4.5625 6 C-4.14162109 5.42765625 -3.72074219 4.8553125 -3.28710938 4.265625 C-2.21555864 2.82546081 -1.11033324 1.41048004 0 0 Z " fill="#E4B434" transform="translate(292,115)"/>
<path d="M0 0 C2.49361571 1.20381448 4.68143083 2.45428722 7 4 C2.05 6.475 2.05 6.475 -3 9 C-3 8.01 -3 7.02 -3 6 C-1.68 5.34 -0.36 4.68 1 4 C0.67 2.68 0.34 1.36 0 0 Z " fill="#F6BE33" transform="translate(325,430)"/>
<path d="M0 0 C1 4 1 4 0 7 C-1.87617698 8.84499398 -3.92737609 10.3683599 -6 12 C-6.66 11.67 -7.32 11.34 -8 11 C-5.36 7.37 -2.72 3.74 0 0 Z " fill="#1A0E00" transform="translate(197,385)"/>
<path d="M0 0 C3.72114571 2.31537955 6.61229661 4.28579473 9 8 C6.69 8 4.38 8 2 8 C1.34 5.36 0.68 2.72 0 0 Z " fill="#F0BB2E" transform="translate(127,384)"/>
<path d="M0 0 C0.66 0.33 1.32 0.66 2 1 C-0.64 4.63 -3.28 8.26 -6 12 C-6.33 10.68 -6.66 9.36 -7 8 C-6.34 8 -5.68 8 -5 8 C-4.9175 7.236875 -4.835 6.47375 -4.75 5.6875 C-3.85384206 2.47626739 -2.78388975 1.70625501 0 0 Z " fill="#1D0F02" transform="translate(216,384)"/>
<path d="M0 0 C1.29608947 0.93137592 2.58671632 1.8703566 3.875 2.8125 C4.59429687 3.33457031 5.31359375 3.85664063 6.0546875 4.39453125 C8 6 8 6 10 9 C10.125 12.1875 10.125 12.1875 10 15 C8 12 8 12 8 8 C7.01 8 6.02 8 5 8 C5 7.34 5 6.68 5 6 C4.360625 5.7525 3.72125 5.505 3.0625 5.25 C1 4 1 4 0.37109375 1.921875 C0.24863281 1.28765625 0.12617188 0.6534375 0 0 Z " fill="#341D01" transform="translate(139,373)"/>
<path d="M0 0 C0.33 1.32 0.66 2.64 1 4 C0.01 4.33 -0.98 4.66 -2 5 C-2.33 6.98 -2.66 8.96 -3 11 C-4.65 11 -6.3 11 -8 11 C-7.04454634 9.53977837 -6.08553322 8.08188532 -5.125 6.625 C-4.59132813 5.81289062 -4.05765625 5.00078125 -3.5078125 4.1640625 C-2 2 -2 2 0 0 Z " fill="#1E0F01" transform="translate(265,123)"/>
<path d="M0 0 C0.33 0.99 0.66 1.98 1 3 C-1.00739113 6.44124194 -3.20236546 9.20236546 -6 12 C-6.33 12.99 -6.66 13.98 -7 15 C-7.99 15 -8.98 15 -10 15 C-8.37815499 11.41486894 -6.20743761 8.41007677 -3.875 5.25 C-3.15054687 4.26515625 -2.42609375 3.2803125 -1.6796875 2.265625 C-1.12539063 1.51796875 -0.57109375 0.7703125 0 0 Z " fill="#E2B43A" transform="translate(282,128)"/>
<path d="M0 0 C1.08667969 0.01804687 2.17335937 0.03609375 3.29296875 0.0546875 C4.54013672 0.08949219 4.54013672 0.08949219 5.8125 0.125 C4.86117187 0.30869141 4.86117187 0.30869141 3.890625 0.49609375 C1.61533433 0.93196091 1.61533433 0.93196091 0.5625 3.1875 C0.315 3.826875 0.0675 4.46625 -0.1875 5.125 C-0.8475 4.795 -1.5075 4.465 -2.1875 4.125 C-2.1875 3.465 -2.1875 2.805 -2.1875 2.125 C-4.4975 2.125 -6.8075 2.125 -9.1875 2.125 C-5.66070901 -0.22619399 -4.15870515 -0.08943452 0 0 Z " fill="#F5BE3E" transform="translate(210.1875,102.875)"/>
<path d="M0 0 C7.48291572 6.15034169 7.48291572 6.15034169 10 10 C8.02 9.34 6.04 8.68 4 8 C4 7.01 4 6.02 4 5 C2.68 5 1.36 5 0 5 C0 3.35 0 1.7 0 0 Z " fill="#EDBC32" transform="translate(117,374)"/>
<path d="M0 0 C2.1875 0.0625 2.1875 0.0625 5 1 C6.93157957 3.1717219 8.48201687 5.52601047 10 8 C9.34 8.66 8.68 9.32 8 10 C6.66370254 8.52351062 5.33103329 7.0437367 4 5.5625 C3.2575 4.73878906 2.515 3.91507812 1.75 3.06640625 C0 1 0 1 0 0 Z " fill="#1E1001" transform="translate(108,363)"/>
<path d="M0 0 C0.66 1.32 1.32 2.64 2 4 C0.35 4.33 -1.3 4.66 -3 5 C-3.66 7.31 -4.32 9.62 -5 12 C-6.32 11.34 -7.64 10.68 -9 10 C-6.03 6.7 -3.06 3.4 0 0 Z " fill="#EAB834" transform="translate(229,250)"/>
<path d="M0 0 C0.33 0 0.66 0 1 0 C0.67 5.61 0.34 11.22 0 17 C-0.99 16.01 -1.98 15.02 -3 14 C-2.75277795 8.97315167 -1.7732399 4.72863973 0 0 Z " fill="#E0BA50" transform="translate(66,221)"/>
<path d="M0 0 C0.66 0 1.32 0 2 0 C2 0.99 2 1.98 2 3 C2.969375 3.28875 3.93875 3.5775 4.9375 3.875 C8 5 8 5 9 7 C8.01 8.485 8.01 8.485 7 10 C4.36 7.36 1.72 4.72 -1 2 C-0.67 1.34 -0.34 0.68 0 0 Z " fill="#DCAF30" transform="translate(126,358)"/>
<path d="M0 0 C1.125 3.75 1.125 3.75 0 6 C-0.61875 6.268125 -1.2375 6.53625 -1.875 6.8125 C-4.64126132 8.35835192 -5.54655436 10.23845328 -7 13 C-7.66 12.67 -8.32 12.34 -9 12 C-7.68858144 10.18671738 -6.37583526 8.37439486 -5.0625 6.5625 C-3.96615234 5.04849609 -3.96615234 5.04849609 -2.84765625 3.50390625 C-1 1 -1 1 0 0 Z " fill="#E6B535" transform="translate(320,299)"/>
<path d="M0 0 C3.23861303 1.44424635 5.61969163 3.25772247 8.25 5.625 C8.95640625 6.25664062 9.6628125 6.88828125 10.390625 7.5390625 C10.92171875 8.02117187 11.4528125 8.50328125 12 9 C9 10 9 10 6 9 C5.66666667 7.66666667 5.33333333 6.33333333 5 5 C4.01 4.67 3.02 4.34 2 4 C2 3.34 2 2.68 2 2 C1.34 2 0.68 2 0 2 C0 1.34 0 0.68 0 0 Z " fill="#F2BC44" transform="translate(346,139)"/>
<path d="M0 0 C4.50802601 1.25805377 7.4912812 2.90407165 11 6 C8.69 5.67 6.38 5.34 4 5 C3.67 5.66 3.34 6.32 3 7 C2.67 6.01 2.34 5.02 2 4 C1.34 3.67 0.68 3.34 0 3 C0 2.01 0 1.02 0 0 Z " fill="#F4BF39" transform="translate(314,119)"/>
<path d="M0 0 C0.66 0.33 1.32 0.66 2 1 C1.57847656 1.54269531 1.15695312 2.08539063 0.72265625 2.64453125 C0.17480469 3.35996094 -0.37304688 4.07539063 -0.9375 4.8125 C-1.48277344 5.52019531 -2.02804687 6.22789062 -2.58984375 6.95703125 C-4.16856248 9.04125052 -4.16856248 9.04125052 -5 12 C-5.66 12 -6.32 12 -7 12 C-7 10.68 -7 9.36 -7 8 C-6.34 8 -5.68 8 -5 8 C-4.34 6.35 -3.68 4.7 -3 3 C-2.34 3 -1.68 3 -1 3 C-0.67 2.01 -0.34 1.02 0 0 Z " fill="#1D1100" transform="translate(292,281)"/>
<path d="M0 0 C2.97 0 5.94 0 9 0 C8.67 0.66 8.34 1.32 8 2 C8.99 2.99 9.98 3.98 11 5 C10.01 5.495 10.01 5.495 9 6 C6.8359375 5.00390625 6.8359375 5.00390625 4.375 3.5625 C3.55773437 3.08941406 2.74046875 2.61632812 1.8984375 2.12890625 C1.27195313 1.75636719 0.64546875 1.38382812 0 1 C0 0.67 0 0.34 0 0 Z " fill="#1C1204" transform="translate(172,260)"/>
<path d="M0 0 C3.10190545 4.65285818 4.33846504 9.41532676 4 15 C2 14 2 14 0.875 12 C-0.30338431 7.95982523 -0.16384045 4.17793151 0 0 Z " fill="#F2C144" transform="translate(407,225)"/>
<path d="M0 0 C1.32 0.33 2.64 0.66 4 1 C2.68938409 5.23429756 1.05643741 9.07407404 -1 13 C-2.31716987 9.04849038 -1.19076223 6.92251089 0 3 C0 2.01 0 1.02 0 0 Z " fill="#EFC038" transform="translate(395,356)"/>
<path d="M0 0 C2.34914492 2.34914492 2.73140357 3.95679446 3.625 7.125 C3.88539062 8.03507812 4.14578125 8.94515625 4.4140625 9.8828125 C4.70410156 10.93082031 4.70410156 10.93082031 5 12 C3.68 11.67 2.36 11.34 1 11 C0.67 7.37 0.34 3.74 0 0 Z " fill="#1E1102" transform="translate(91,302)"/>
<path d="M0 0 C3 0.9375 3 0.9375 4.9375 2.75 C6 4.9375 6 4.9375 5.6875 7.1875 C5.460625 7.765 5.23375 8.3425 5 8.9375 C3.515 5.9675 3.515 5.9675 2 2.9375 C-0.64 2.9375 -3.28 2.9375 -6 2.9375 C-4.06996773 0.25689963 -3.3864475 -0.07055099 0 0 Z " fill="#3E2403" transform="translate(336,261.0625)"/>
<path d="M0 0 C1.65 0.33 3.3 0.66 5 1 C3.55746343 4.36591866 1.66735273 6.51047079 -1 9 C-0.67 6.03 -0.34 3.06 0 0 Z " fill="#EEB92F" transform="translate(284,264)"/>
<path d="M0 0 C0 2.95274099 -0.43891831 4.49058403 -1.5 7.1875 C-1.7784375 7.90292969 -2.056875 8.61835938 -2.34375 9.35546875 C-2.5603125 9.89816406 -2.776875 10.44085938 -3 11 C-3.99 10.34 -4.98 9.68 -6 9 C-4.47291037 5.56404834 -2.40072955 2.88087546 0 0 Z " fill="#150D04" transform="translate(159,436)"/>
<path d="M0 0 C0.33 0 0.66 0 1 0 C1 1.65 1 3.3 1 5 C0.0409375 5.37125 0.0409375 5.37125 -0.9375 5.75 C-3.18741541 6.81562433 -3.18741541 6.81562433 -3.75 9.125 C-3.8325 9.74375 -3.915 10.3625 -4 11 C-4.66 10.67 -5.32 10.34 -6 10 C-4.34784004 6.42032008 -2.26875648 3.22017048 0 0 Z " fill="#1E1402" transform="translate(166,426)"/>
<path d="M0 0 C0.33 1.32 0.66 2.64 1 4 C-0.9375 6.125 -0.9375 6.125 -3 8 C-3 8.66 -3 9.32 -3 10 C-4.32 9.67 -5.64 9.34 -7 9 C-4.69 6.03 -2.38 3.06 0 0 Z " fill="#211002" transform="translate(208,371)"/>
<path d="M0 0 C0.66 0.33 1.32 0.66 2 1 C0.69144447 2.83615081 -0.62194462 4.66885789 -1.9375 6.5 C-2.66839844 7.5209375 -3.39929688 8.541875 -4.15234375 9.59375 C-4.76207031 10.3878125 -5.37179688 11.181875 -6 12 C-6.33 12 -6.66 12 -7 12 C-7 10.35 -7 8.7 -7 7 C-6.01 7 -5.02 7 -4 7 C-3.34 5.35 -2.68 3.7 -2 2 C-1.34 2 -0.68 2 0 2 C0 1.34 0 0.68 0 0 Z " fill="#230F01" transform="translate(237,356)"/>
<path d="M0 0 C1.67542976 0.28604898 3.34385343 0.61781233 5 1 C4.67 3.31 4.34 5.62 4 8 C1.47411298 5.63707344 0.11179163 4.33537489 -1 1 C-0.67 0.67 -0.34 0.34 0 0 Z " fill="#120F05" transform="translate(104,355)"/>
<path d="M0 0 C0.66 0.33 1.32 0.66 2 1 C0.55746343 4.36591866 -1.33264727 6.51047079 -4 9 C-4.33 7.02 -4.66 5.04 -5 3 C-4.34 2.67 -3.68 2.34 -3 2 C-2.01 2.33 -1.02 2.66 0 3 C0 2.01 0 1.02 0 0 Z " fill="#EDBA2F" transform="translate(251,260)"/>
<path d="M0 0 C5.75 1.625 5.75 1.625 8 5 C7.625 7.1875 7.625 7.1875 7 9 C5.83037314 7.69013727 4.66437056 6.3770374 3.5 5.0625 C2.8503125 4.33160156 2.200625 3.60070312 1.53125 2.84765625 C0 1 0 1 0 0 Z " fill="#EFC038" transform="translate(95,392)"/>
<path d="M0 0 C2.61527381 2.36620011 4.26440562 4.942048 6 8 C4.68 9.32 3.36 10.64 2 12 C2.04125 11.319375 2.0825 10.63875 2.125 9.9375 C1.97450035 6.40075832 1.05624147 3.36676967 0 0 Z " fill="#E1B138" transform="translate(224,335)"/>
<path d="M0 0 C-1.60032137 0.84069415 -3.20541171 1.67231505 -4.8125 2.5 C-6.15248047 3.19609375 -6.15248047 3.19609375 -7.51953125 3.90625 C-10 5 -10 5 -13 5 C-12 2 -12 2 -10.29296875 1.015625 C-9.59816406 0.76296875 -8.90335938 0.5103125 -8.1875 0.25 C-7.15689453 -0.14445313 -7.15689453 -0.14445313 -6.10546875 -0.546875 C-3.71856031 -1.06056958 -2.29362227 -0.76282269 0 0 Z " fill="#342205" transform="translate(212,162)"/>
<path d="M0 0 C3 1 3 1 3.9375 2.8125 C4 5 4 5 2.0625 7.25 C1.381875 7.8275 0.70125 8.405 0 9 C-0.84454356 5.62182575 -1.10844919 3.32534757 0 0 Z " fill="#180D07" transform="translate(235,233)"/>
<path d="M0 0 C3.89985574 4.15984612 4.89169747 7.55084591 6 13 C2.12328873 10.41552582 2.19213805 8.37117286 1 4 C0.34 3.67 -0.32 3.34 -1 3 C-0.67 2.01 -0.34 1.02 0 0 Z " fill="#2D1802" transform="translate(250,177)"/>
<path d="M0 0 C3.3 0.99 6.6 1.98 10 3 C7 5 7 5 4 5 C4 4.34 4 3.68 4 3 C2.02 3 0.04 3 -2 3 C-1.34 2.01 -0.68 1.02 0 0 Z " fill="#E5B83D" transform="translate(295,111)"/>
<path d="M0 0 C-1.5625 1.5625 -1.5625 1.5625 -4 3 C-7.75 2.6875 -7.75 2.6875 -11 2 C-7.39759636 -1.60240364 -4.69302684 -0.93860537 0 0 Z " fill="#E3B332" transform="translate(323,423)"/>
<path d="M0 0 C1.32 0.33 2.64 0.66 4 1 C4 2.65 4 4.3 4 6 C4.99 6 5.98 6 7 6 C7 7.65 7 9.3 7 11 C3.18699218 7.7129243 1.77027754 4.60272162 0 0 Z " fill="#EFBF3E" transform="translate(79,368)"/>
<path d="M0 0 C0.33 0.99 0.66 1.98 1 3 C-1.44172459 6.25563278 -4.04449934 9.20005201 -7 12 C-7 8.19654123 -5.86213669 7.22298985 -3.5 4.3125 C-2.8503125 3.50425781 -2.200625 2.69601563 -1.53125 1.86328125 C-1.0259375 1.24839844 -0.520625 0.63351563 0 0 Z " fill="#231100" transform="translate(256,135)"/>
<path d="M0 0 C0.33 0.99 0.66 1.98 1 3 C-0.40445835 5.2636564 -2.1967913 7.0208685 -4 9 C-5.04187157 5.87438528 -5.23843794 4.95319818 -4 2 C-1.9375 0.75 -1.9375 0.75 0 0 Z " fill="#140B01" transform="translate(296,107)"/>
<path d="M0 0 C0.33 0.66 0.66 1.32 1 2 C0.01 3.485 0.01 3.485 -1 5 C-1.66 5 -2.32 5 -3 5 C-3.2475 5.639375 -3.495 6.27875 -3.75 6.9375 C-5 9 -5 9 -7.078125 9.62890625 C-8.02945312 9.81259766 -8.02945312 9.81259766 -9 10 C-8.06409496 8.8944811 -7.12620142 7.79064547 -6.1875 6.6875 C-5.66542969 6.07261719 -5.14335937 5.45773437 -4.60546875 4.82421875 C-3.12827531 3.14575321 -1.59960869 1.56117966 0 0 Z " fill="#EDB630" transform="translate(286,343)"/>
<path d="M0 0 C1.32 0 2.64 0 4 0 C2.55746343 3.36591866 0.66735273 5.51047079 -2 8 C-1.125 1.125 -1.125 1.125 0 0 Z " fill="#EAB92F" transform="translate(243,269)"/>
<path d="M0 0 C0.66 0 1.32 0 2 0 C0.68775452 3.93673644 -0.91910327 6.22719294 -4 9 C-4 8.34 -4 7.68 -4 7 C-4.66 6.67 -5.32 6.34 -6 6 C-4.68 5.67 -3.36 5.34 -2 5 C-1.855625 4.360625 -1.71125 3.72125 -1.5625 3.0625 C-1 1 -1 1 0 0 Z " fill="#201401" transform="translate(286,237)"/>
<path d="M0 0 C0.99 0 1.98 0 3 0 C2.67 2.64 2.34 5.28 2 8 C1.01 8.33 0.02 8.66 -1 9 C-0.67 6.03 -0.34 3.06 0 0 Z " fill="#0F0F12" transform="translate(69,207)"/>
<path d="M0 0 C0.33 0 0.66 0 1 0 C1 3.3 1 6.6 1 10 C0.01 10.33 -0.98 10.66 -2 11 C-1.125 3.375 -1.125 3.375 0 0 Z " fill="#D7A831" transform="translate(88,195)"/>
<path d="M0 0 C0.66 0 1.32 0 2 0 C0.77472971 4.05281712 -0.69880494 7.44360764 -3 11 C-4 8 -4 8 -3.22265625 5.95703125 C-2.83980469 5.24933594 -2.45695312 4.54164063 -2.0625 3.8125 C-1.68222656 3.09707031 -1.30195312 2.38164062 -0.91015625 1.64453125 C-0.60980469 1.10183594 -0.30945313 0.55914062 0 0 Z " fill="#201101" transform="translate(103,156)"/>
<path d="M0 0 C0.66 0.33 1.32 0.66 2 1 C1.4375 2.9375 1.4375 2.9375 0 5 C-3.625 5.75 -3.625 5.75 -7 6 C-4.74259377 3.66475218 -2.7194239 1.81294927 0 0 Z " fill="#EFC03E" transform="translate(142,127)"/>
<path d="M0 0 C0.8125 1.6875 0.8125 1.6875 1 4 C-1.3125 6.75 -1.3125 6.75 -4 9 C-4.66 9 -5.32 9 -6 9 C-4.47291037 5.56404834 -2.40072955 2.88087546 0 0 Z " fill="#221001" transform="translate(278,106)"/>
<path d="M0 0 C2.1875 0.3125 2.1875 0.3125 4 1 C2.35 2.65 0.7 4.3 -1 6 C-1.66 5.01 -2.32 4.02 -3 3 C-1.75 1.4375 -1.75 1.4375 0 0 Z " fill="#100B03" transform="translate(169,444)"/>
<path d="M0 0 C1.32 0.66 2.64 1.32 4 2 C2.69593116 4.01920337 1.36176581 6.01924973 0 8 C-0.33 8 -0.66 8 -1 8 C-1.04241723 5.66705225 -1.04092937 3.33297433 -1 1 C-0.67 0.67 -0.34 0.34 0 0 Z " fill="#E5B330" transform="translate(173,411)"/>
<path d="M0 0 C0.33 0.66 0.66 1.32 1 2 C1.66 2 2.32 2 3 2 C2.67 3.32 2.34 4.64 2 6 C1.01 6 0.02 6 -1 6 C-1.33 4.35 -1.66 2.7 -2 1 C-1.34 0.67 -0.68 0.34 0 0 Z " fill="#130B02" transform="translate(225,329)"/>
<path d="M0 0 C0.33 0.99 0.66 1.98 1 3 C-0.8125 5.5 -0.8125 5.5 -3 8 C-3.99 9.485 -3.99 9.485 -5 11 C-5.66 11 -6.32 11 -7 11 C-5.22054913 6.95579349 -2.60470327 3.53921513 0 0 Z " fill="#271300" transform="translate(239,280)"/>
<path d="M0 0 C0.66 0.99 1.32 1.98 2 3 C-1.5 7.875 -1.5 7.875 -6 9 C-4.02 6.03 -2.04 3.06 0 0 Z " fill="#251702" transform="translate(259,253)"/>
<path d="M0 0 C-0.33 0.99 -0.66 1.98 -1 3 C-3.64 3.33 -6.28 3.66 -9 4 C-9.33 3.34 -9.66 2.68 -10 2 C-8.7090864 1.66376204 -7.41723903 1.33110751 -6.125 1 C-5.40570313 0.814375 -4.68640625 0.62875 -3.9453125 0.4375 C-2 0 -2 0 0 0 Z " fill="#DAAD32" transform="translate(310,425)"/>
<path d="M0 0 C2.64 0.66 5.28 1.32 8 2 C8 2.99 8 3.98 8 5 C5 5 5 5 2.3125 2.5 C1.549375 1.675 0.78625 0.85 0 0 Z " fill="#EFBF3D" transform="translate(127,423)"/>
<path d="M0 0 C0.33 0 0.66 0 1 0 C1.3125 2.25 1.3125 2.25 1 5 C-1.5 7.3125 -1.5 7.3125 -4 9 C-4.66 8.67 -5.32 8.34 -6 8 C-5.02471263 6.66382648 -4.04466681 5.3311249 -3.0625 4 C-2.24458984 2.88625 -2.24458984 2.88625 -1.41015625 1.75 C-0.94480469 1.1725 -0.47945313 0.595 0 0 Z " fill="#E0B135" transform="translate(270,261)"/>
<path d="M0 0 C0.99 0.33 1.98 0.66 3 1 C2.19152271 2.16945792 1.37810888 3.33550461 0.5625 4.5 C0.11003906 5.1496875 -0.34242188 5.799375 -0.80859375 6.46875 C-1.20175781 6.9740625 -1.59492188 7.479375 -2 8 C-2.33 8 -2.66 8 -3 8 C-3 6.35 -3 4.7 -3 3 C-2.01 3 -1.02 3 0 3 C0 2.01 0 1.02 0 0 Z " fill="#EABC35" transform="translate(271,233)"/>
<path d="M0 0 C0.33 0.66 0.66 1.32 1 2 C-0.5224249 5.57769851 -2.02930459 8.45368965 -5 11 C-5.66 10.67 -6.32 10.34 -7 10 C-3.535 5.05 -3.535 5.05 0 0 Z " fill="#DBB039" transform="translate(251,220)"/>
<path d="M0 0 C0.66 0.33 1.32 0.66 2 1 C-0.97 4.96 -0.97 4.96 -4 9 C-4.33 8.01 -4.66 7.02 -5 6 C-3.59554165 3.7363436 -1.8032087 1.9791315 0 0 Z " fill="#210F01" transform="translate(262,152)"/>
<path d="M0 0 C0.99 0.33 1.98 0.66 3 1 C1.70700306 3.88437779 0.34058637 5.87219421 -2 8 C-1.125 1.125 -1.125 1.125 0 0 Z " fill="#1A0D01" transform="translate(284,120)"/>
<path d="M0 0 C2.97 0.495 2.97 0.495 6 1 C6 1.66 6 2.32 6 3 C6.99 3.33 7.98 3.66 9 4 C7.3125 4.6875 7.3125 4.6875 5 5 C2.25 3.6875 2.25 3.6875 0 2 C0 1.34 0 0.68 0 0 Z " fill="#1D1309" transform="translate(347,417)"/>
<path d="M0 0 C0.33 0.66 0.66 1.32 1 2 C1.66 2.33 2.32 2.66 3 3 C1.35 4.32 -0.3 5.64 -2 7 C-2.33 5.68 -2.66 4.36 -3 3 C-2.34 3 -1.68 3 -1 3 C-0.67 2.01 -0.34 1.02 0 0 Z " fill="#EEB731" transform="translate(181,401)"/>
<path d="M0 0 C1.32 0.66 2.64 1.32 4 2 C2.35 3.65 0.7 5.3 -1 7 C-1.625 5.1875 -1.625 5.1875 -2 3 C-1.34 2.01 -0.68 1.02 0 0 Z " fill="#EFBB34" transform="translate(204,370)"/>
<path d="M0 0 C0.33 0.99 0.66 1.98 1 3 C1.66 3.33 2.32 3.66 3 4 C1.35 5.65 -0.3 7.3 -2 9 C-1.125 1.125 -1.125 1.125 0 0 Z " fill="#EEBA32" transform="translate(237,276)"/>
<path d="M0 0 C0.99 0 1.98 0 3 0 C1.70700306 2.88437779 0.34058637 4.87219421 -2 7 C-2.125 4.625 -2.125 4.625 -2 2 C-1.34 1.34 -0.68 0.68 0 0 Z " fill="#E7B731" transform="translate(322,269)"/>
<path d="M0 0 C0.66 0.33 1.32 0.66 2 1 C0.02 5.455 0.02 5.455 -2 10 C-2.33 10 -2.66 10 -3 10 C-3 7.69 -3 5.38 -3 3 C-2.34 3 -1.68 3 -1 3 C-0.67 2.01 -0.34 1.02 0 0 Z " fill="#E6B734" transform="translate(160,209)"/>
<path d="M0 0 C1.32 0 2.64 0 4 0 C3.34 1.65 2.68 3.3 2 5 C1.01 5 0.02 5 -1 5 C-0.67 3.35 -0.34 1.7 0 0 Z " fill="#1E1301" transform="translate(182,426)"/>
<path d="M0 0 C-0.33 0.99 -0.66 1.98 -1 3 C-3.91482778 3.80967438 -5.46113217 4.21845993 -8.3125 3.0625 C-8.869375 2.711875 -9.42625 2.36125 -10 2 C-3.375 0 -3.375 0 0 0 Z " fill="#301E06" transform="translate(309,409)"/>
<path d="M0 0 C0.66 0 1.32 0 2 0 C2.33 1.65 2.66 3.3 3 5 C3.66 5 4.32 5 5 5 C4.67 6.32 4.34 7.64 4 9 C1.49701566 6.06171403 0.53069061 3.82097239 0 0 Z " fill="#E2B537" transform="translate(97,314)"/>
<path d="M0 0 C0.66 0.33 1.32 0.66 2 1 C1.01 2.485 1.01 2.485 0 4 C0 4.99 0 5.98 0 7 C-0.99 6.67 -1.98 6.34 -3 6 C-2.625 3.5625 -2.625 3.5625 -2 1 C-1.34 0.67 -0.68 0.34 0 0 Z " fill="#EAB733" transform="translate(245,297)"/>
<path d="M0 0 C1.485 0.99 1.485 0.99 3 2 C3.66 2.33 4.32 2.66 5 3 C3.68 4.32 2.36 5.64 1 7 C0.34 5.02 -0.32 3.04 -1 1 C-0.67 0.67 -0.34 0.34 0 0 Z " fill="#160901" transform="translate(260,266)"/>
<path d="M0 0 C0.75 1.75 0.75 1.75 1 4 C-0.8125 6.25 -0.8125 6.25 -3 8 C-3.66 8 -4.32 8 -5 8 C-3.62845496 5.04590299 -2.01136276 2.55991624 0 0 Z " fill="#241601" transform="translate(294,259)"/>
<path d="M0 0 C0.33 0 0.66 0 1 0 C0.67 4.29 0.34 8.58 0 13 C-0.33 13 -0.66 13 -1 13 C-1.2236337 11.58566794 -1.42826476 10.16832382 -1.625 8.75 C-1.74101563 7.96109375 -1.85703125 7.1721875 -1.9765625 6.359375 C-2.00319395 3.67847541 -1.36592084 2.27305911 0 0 Z " fill="#2B1B01" transform="translate(83,213)"/>
<path d="M0 0 C0.33 0.66 0.66 1.32 1 2 C0.06553465 4.03144641 -0.93224776 6.03533587 -2 8 C-2.99 8 -3.98 8 -5 8 C-3.62845496 5.04590299 -2.01136276 2.55991624 0 0 Z " fill="#201201" transform="translate(181,183)"/>
<path d="M0 0 C1.98 0.66 3.96 1.32 6 2 C6 2.66 6 3.32 6 4 C4.35 4.66 2.7 5.32 1 6 C0.67 4.02 0.34 2.04 0 0 Z " fill="#D9AD45" transform="translate(331,427)"/>
<path d="M0 0 C2.64 0 5.28 0 8 0 C8.33 0.99 8.66 1.98 9 3 C6.36 2.34 3.72 1.68 1 1 C0.67 1.66 0.34 2.32 0 3 C0 2.01 0 1.02 0 0 Z " fill="#1F1000" transform="translate(188,421)"/>
<path d="M0 0 C1.875 0.25 1.875 0.25 4 1 C5.3125 2.875 5.3125 2.875 6 5 C5.67 5.99 5.34 6.98 5 8 C4.16382818 6.8562364 3.33113541 5.70992861 2.5 4.5625 C2.0359375 3.92441406 1.571875 3.28632813 1.09375 2.62890625 C0 1 0 1 0 0 Z " fill="#E2B437" transform="translate(116,347)"/>
<path d="M0 0 C2.66735273 2.48952921 4.55746343 4.63408134 6 8 C3.53199953 6.84826645 1.95216435 5.95216435 0 4 C0 2.68 0 1.36 0 0 Z " fill="#281403" transform="translate(108,337)"/>
<path d="M0 0 C0.66 1.32 1.32 2.64 2 4 C0.68 4.33 -0.64 4.66 -2 5 C-2 5.66 -2 6.32 -2 7 C-2.99 6.67 -3.98 6.34 -5 6 C-3.35 4.02 -1.7 2.04 0 0 Z " fill="#221601" transform="translate(187,175)"/>
<path d="M0 0 C1.24546405 2.49092811 0.7767578 3.41080733 0 6 C-1.65 6.33 -3.3 6.66 -5 7 C-3.35 4.69 -1.7 2.38 0 0 Z " fill="#DEB132" transform="translate(255,164)"/>
<path d="M0 0 C1.485 0.99 1.485 0.99 3 2 C3.99 2.33 4.98 2.66 6 3 C2.535 4.485 2.535 4.485 -1 6 C-1.042721 4.33388095 -1.04063832 2.66617115 -1 1 C-0.67 0.67 -0.34 0.34 0 0 Z " fill="#F1BA2D" transform="translate(199,160)"/>
</svg>
